solid model
facet normal 0.707106781186547 -0.707106781186548 0.0
outer loop
vertex -1.20208152801713 1.20208152801713 0.0
vertex -1.47224318643355 0.850000000000001 3.75
vertex -1.47224318643355 0.850000000000001 0.0
endloop
endfacet
facet normal 0.866025403784439 -0.5 0.0
outer loop
vertex -1.47224318643355 0.850000000000001 3.75
vertex -1.20208152801713 1.20208152801713 0.0
vertex -1.20208152801713 1.20208152801713 3.75
endloop
endfacet
facet normal 1.0 -2.76244406765054e-016 0.0
outer loop
vertex -1.7 0.0 0.0
vertex -1.64207390469142 -0.439992376674285 3.75
vertex -1.64207390469142 -0.439992376674285 0.0
endloop
endfacet
facet normal 0.965925826289068 0.25881904510252 0.0
outer loop
vertex -1.64207390469142 -0.439992376674285 3.75
vertex -1.7 0.0 0.0
vertex -1.7 0.0 3.75
endloop
endfacet
facet normal -0.965925826289068 -0.258819045102521 0.0
outer loop
vertex 1.64207390469142 0.439992376674285 3.75
vertex 1.7 0.0 0.0
vertex 1.7 0.0 3.75
endloop
endfacet
facet normal -1.0 1.69311088017291e-016 0.0
outer loop
vertex 1.7 0.0 0.0
vertex 1.64207390469142 0.439992376674285 3.75
vertex 1.64207390469142 0.439992376674285 0.0
endloop
endfacet
facet normal -0.965925826289068 0.258819045102521 0.0
outer loop
vertex 1.64207390469142 -0.439992376674287 3.75
vertex 1.47224318643355 -0.850000000000001 0.0
vertex 1.47224318643355 -0.850000000000001 3.75
endloop
endfacet
facet normal -0.866025403784438 0.500000000000001 0.0
outer loop
vertex 1.47224318643355 -0.850000000000001 0.0
vertex 1.64207390469142 -0.439992376674287 3.75
vertex 1.64207390469142 -0.439992376674287 0.0
endloop
endfacet
facet normal -0.707106781186548 -0.707106781186547 0.0
outer loop
vertex 1.20208152801713 1.20208152801713 3.75
vertex 0.85 1.47224318643355 0.0
vertex 1.20208152801713 1.20208152801713 0.0
endloop
endfacet
facet normal -0.5 -0.866025403784439 0.0
outer loop
vertex 0.85 1.47224318643355 0.0
vertex 1.20208152801713 1.20208152801713 3.75
vertex 0.85 1.47224318643355 3.75
endloop
endfacet
facet normal 0.5 -0.866025403784439 0.0
outer loop
vertex -0.85 1.47224318643355 3.75
vertex -1.20208152801713 1.20208152801713 0.0
vertex -0.85 1.47224318643355 0.0
endloop
endfacet
facet normal 0.707106781186547 -0.707106781186548 0.0
outer loop
vertex -1.20208152801713 1.20208152801713 0.0
vertex -0.85 1.47224318643355 3.75
vertex -1.20208152801713 1.20208152801713 3.75
endloop
endfacet
facet normal 0.965925826289068 -0.258819045102521 0.0
outer loop
vertex -1.64207390469142 0.439992376674285 0.0
vertex -1.7 0.0 3.75
vertex -1.7 0.0 0.0
endloop
endfacet
facet normal 1.0 -2.76244406765054e-016 0.0
outer loop
vertex -1.7 0.0 3.75
vertex -1.64207390469142 0.439992376674285 0.0
vertex -1.64207390469142 0.439992376674285 3.75
endloop
endfacet
facet normal 0.866025403784439 0.5 0.0
outer loop
vertex -1.47224318643355 -0.85 0.0
vertex -1.20208152801713 -1.20208152801713 3.75
vertex -1.20208152801713 -1.20208152801713 0.0
endloop
endfacet
facet normal 0.707106781186548 0.707106781186547 0.0
outer loop
vertex -1.20208152801713 -1.20208152801713 3.75
vertex -1.47224318643355 -0.85 0.0
vertex -1.47224318643355 -0.85 3.75
endloop
endfacet
facet normal 0.866025403784439 -0.5 0.0
outer loop
vertex -1.47224318643355 0.850000000000001 0.0
vertex -1.64207390469142 0.439992376674285 3.75
vertex -1.64207390469142 0.439992376674285 0.0
endloop
endfacet
facet normal 0.965925826289068 -0.258819045102521 0.0
outer loop
vertex -1.64207390469142 0.439992376674285 3.75
vertex -1.47224318643355 0.850000000000001 0.0
vertex -1.47224318643355 0.850000000000001 3.75
endloop
endfacet
facet normal -0.965925826289068 -0.25881904510252 6.02049463287301e-018
outer loop
vertex -5.31259204458988 -1.42350474806386 3.75
vertex -4.76313972081441 -2.75 1.0
vertex -4.76313972081441 -2.75 3.75
endloop
endfacet
facet normal -0.866025403784439 -0.5 5.34171470662355e-018
outer loop
vertex -4.76313972081441 -2.75 1.0
vertex -5.31259204458988 -1.42350474806386 3.75
vertex -5.31259204458988 -1.42350474806386 1.0
endloop
endfacet
facet normal -1.0 1.69311088017291e-016 0.0
outer loop
vertex 1.7 0.0 3.75
vertex 1.64207390469142 -0.439992376674287 0.0
vertex 1.64207390469142 -0.439992376674287 3.75
endloop
endfacet
facet normal -0.965925826289068 0.258819045102521 0.0
outer loop
vertex 1.64207390469142 -0.439992376674287 0.0
vertex 1.7 0.0 3.75
vertex 1.7 0.0 0.0
endloop
endfacet
facet normal 0.500000000000001 0.866025403784438 0.0
outer loop
vertex -0.850000000000001 -1.47224318643355 3.75
vertex -0.439992376674287 -1.64207390469142 0.0
vertex -0.850000000000001 -1.47224318643355 0.0
endloop
endfacet
facet normal 0.258819045102521 0.965925826289068 0.0
outer loop
vertex -0.439992376674287 -1.64207390469142 0.0
vertex -0.850000000000001 -1.47224318643355 3.75
vertex -0.439992376674287 -1.64207390469142 3.75
endloop
endfacet
facet normal 2.13866637495526e-016 1.0 0.0
outer loop
vertex 0.0 -1.7 3.75
vertex 0.439992376674284 -1.64207390469142 0.0
vertex 0.0 -1.7 0.0
endloop
endfacet
facet normal -0.25881904510252 0.965925826289068 0.0
outer loop
vertex 0.439992376674284 -1.64207390469142 0.0
vertex 0.0 -1.7 3.75
vertex 0.439992376674284 -1.64207390469142 3.75
endloop
endfacet
facet normal -0.258819045102521 -0.965925826289068 0.0
outer loop
vertex 0.439992376674285 1.64207390469142 3.75
vertex 0.0 1.7 0.0
vertex 0.439992376674285 1.64207390469142 0.0
endloop
endfacet
facet normal -3.20799956243289e-016 -1.0 0.0
outer loop
vertex 0.0 1.7 0.0
vertex 0.439992376674285 1.64207390469142 3.75
vertex 0.0 1.7 3.75
endloop
endfacet
facet normal 0.258819045102521 -0.965925826289068 0.0
outer loop
vertex -0.439992376674285 1.64207390469142 3.75
vertex -0.85 1.47224318643355 0.0
vertex -0.439992376674285 1.64207390469142 0.0
endloop
endfacet
facet normal 0.5 -0.866025403784439 0.0
outer loop
vertex -0.85 1.47224318643355 0.0
vertex -0.439992376674285 1.64207390469142 3.75
vertex -0.85 1.47224318643355 3.75
endloop
endfacet
facet normal 0.707106781186548 0.707106781186547 0.0
outer loop
vertex -1.20208152801713 -1.20208152801713 3.75
vertex -0.850000000000001 -1.47224318643355 0.0
vertex -1.20208152801713 -1.20208152801713 0.0
endloop
endfacet
facet normal 0.500000000000001 0.866025403784438 0.0
outer loop
vertex -0.850000000000001 -1.47224318643355 0.0
vertex -1.20208152801713 -1.20208152801713 3.75
vertex -0.850000000000001 -1.47224318643355 3.75
endloop
endfacet
facet normal -0.5 -0.866025403784439 0.0
outer loop
vertex 0.85 1.47224318643355 3.75
vertex 0.439992376674285 1.64207390469142 0.0
vertex 0.85 1.47224318643355 0.0
endloop
endfacet
facet normal -0.258819045102521 -0.965925826289068 0.0
outer loop
vertex 0.439992376674285 1.64207390469142 0.0
vertex 0.85 1.47224318643355 3.75
vertex 0.439992376674285 1.64207390469142 3.75
endloop
endfacet
facet normal 0.258819045102521 0.965925826289068 0.0
outer loop
vertex -0.439992376674287 -1.64207390469142 3.75
vertex 0.0 -1.7 0.0
vertex -0.439992376674287 -1.64207390469142 0.0
endloop
endfacet
facet normal 2.13866637495526e-016 1.0 0.0
outer loop
vertex 0.0 -1.7 0.0
vertex -0.439992376674287 -1.64207390469142 3.75
vertex 0.0 -1.7 3.75
endloop
endfacet
facet normal -0.707106781186548 -0.707106781186547 0.0
outer loop
vertex 1.20208152801713 1.20208152801713 3.75
vertex 1.47224318643355 0.85 0.0
vertex 1.47224318643355 0.85 3.75
endloop
endfacet
facet normal -0.866025403784439 -0.5 0.0
outer loop
vertex 1.47224318643355 0.85 0.0
vertex 1.20208152801713 1.20208152801713 3.75
vertex 1.20208152801713 1.20208152801713 0.0
endloop
endfacet
facet normal -0.25881904510252 0.965925826289068 0.0
outer loop
vertex 0.439992376674284 -1.64207390469142 3.75
vertex 0.849999999999998 -1.47224318643355 0.0
vertex 0.439992376674284 -1.64207390469142 0.0
endloop
endfacet
facet normal -0.5 0.866025403784439 0.0
outer loop
vertex 0.849999999999998 -1.47224318643355 0.0
vertex 0.439992376674284 -1.64207390469142 3.75
vertex 0.849999999999998 -1.47224318643355 3.75
endloop
endfacet
facet normal -0.866025403784439 -0.5 0.0
outer loop
vertex 1.47224318643355 0.85 3.75
vertex 1.64207390469142 0.439992376674285 0.0
vertex 1.64207390469142 0.439992376674285 3.75
endloop
endfacet
facet normal -0.965925826289068 -0.258819045102521 0.0
outer loop
vertex 1.64207390469142 0.439992376674285 0.0
vertex 1.47224318643355 0.85 3.75
vertex 1.47224318643355 0.85 0.0
endloop
endfacet
facet normal -0.866025403784438 0.500000000000001 0.0
outer loop
vertex 1.47224318643355 -0.850000000000001 3.75
vertex 1.20208152801713 -1.20208152801713 0.0
vertex 1.20208152801713 -1.20208152801713 3.75
endloop
endfacet
facet normal -0.707106781186547 0.707106781186548 0.0
outer loop
vertex 1.20208152801713 -1.20208152801713 0.0
vertex 1.47224318643355 -0.850000000000001 3.75
vertex 1.47224318643355 -0.850000000000001 0.0
endloop
endfacet
facet normal 0.965925826289068 0.25881904510252 0.0
outer loop
vertex -1.64207390469142 -0.439992376674285 0.0
vertex -1.47224318643355 -0.85 3.75
vertex -1.47224318643355 -0.85 0.0
endloop
endfacet
facet normal 0.866025403784439 0.5 0.0
outer loop
vertex -1.47224318643355 -0.85 3.75
vertex -1.64207390469142 -0.439992376674285 0.0
vertex -1.64207390469142 -0.439992376674285 3.75
endloop
endfacet
facet normal -0.5 0.866025403784439 0.0
outer loop
vertex 0.849999999999998 -1.47224318643355 3.75
vertex 1.20208152801713 -1.20208152801713 0.0
vertex 0.849999999999998 -1.47224318643355 0.0
endloop
endfacet
facet normal -0.707106781186547 0.707106781186548 0.0
outer loop
vertex 1.20208152801713 -1.20208152801713 0.0
vertex 0.849999999999998 -1.47224318643355 3.75
vertex 1.20208152801713 -1.20208152801713 3.75
endloop
endfacet
facet normal -3.20799956243289e-016 -1.0 0.0
outer loop
vertex 0.0 1.7 3.75
vertex -0.439992376674285 1.64207390469142 0.0
vertex 0.0 1.7 0.0
endloop
endfacet
facet normal 0.258819045102521 -0.965925826289068 0.0
outer loop
vertex -0.439992376674285 1.64207390469142 0.0
vertex 0.0 1.7 3.75
vertex -0.439992376674285 1.64207390469142 3.75
endloop
endfacet
facet normal 0.707106781186548 0.707106781186547 1.42373428548889e-018
outer loop
vertex 3.88908729652601 3.88908729652601 1.0
vertex 4.76313972081441 2.75 3.75
vertex 4.76313972081441 2.75 1.0
endloop
endfacet
facet normal 0.866025403784439 0.5 -7.65245113201117e-019
outer loop
vertex 4.76313972081441 2.75 3.75
vertex 3.88908729652601 3.88908729652601 1.0
vertex 3.88908729652601 3.88908729652601 3.75
endloop
endfacet
facet normal -0.500000000000001 -0.866025403784438 2.35145760800542e-018
outer loop
vertex -2.75 -4.76313972081441 3.75
vertex -3.88908729652601 -3.88908729652601 1.0
vertex -2.75 -4.76313972081441 1.0
endloop
endfacet
facet normal -0.707106781186548 -0.707106781186547 2.8474685709778e-018
outer loop
vertex -3.88908729652601 -3.88908729652601 1.0
vertex -2.75 -4.76313972081441 3.75
vertex -3.88908729652601 -3.88908729652601 3.75
endloop
endfacet
facet normal -0.866025403784439 -0.5 5.34171470662355e-018
outer loop
vertex -4.76313972081441 -2.75 3.75
vertex -3.88908729652601 -3.88908729652601 1.0
vertex -3.88908729652601 -3.88908729652601 3.75
endloop
endfacet
facet normal -0.707106781186548 -0.707106781186547 2.8474685709778e-018
outer loop
vertex -3.88908729652601 -3.88908729652601 1.0
vertex -4.76313972081441 -2.75 3.75
vertex -4.76313972081441 -2.75 1.0
endloop
endfacet
facet normal -0.866025403784439 0.5 -3.33532753656958e-019
outer loop
vertex -4.76313972081441 2.75 3.75
vertex -5.31259204458988 1.42350474806387 1.0
vertex -5.31259204458988 1.42350474806387 3.75
endloop
endfacet
facet normal -0.965925826289068 0.258819045102521 -2.37972362470664e-018
outer loop
vertex -5.31259204458988 1.42350474806387 1.0
vertex -4.76313972081441 2.75 3.75
vertex -4.76313972081441 2.75 1.0
endloop
endfacet
facet normal 0.0 0.0 1.0
outer loop
vertex -5.31259204458988 -1.42350474806386 3.75
vertex -5.31259204458988 1.42350474806387 3.75
vertex -5.5 0.0 3.75
endloop
endfacet
facet normal 0.0 0.0 1.0
outer loop
vertex -5.31259204458988 1.42350474806387 3.75
vertex -5.31259204458988 -1.42350474806386 3.75
vertex -4.76313972081441 -2.75 3.75
endloop
endfacet
facet normal 0.0 0.0 1.0
outer loop
vertex -5.31259204458988 1.42350474806387 3.75
vertex -4.76313972081441 -2.75 3.75
vertex -4.76313972081441 2.75 3.75
endloop
endfacet
facet normal 0.0 0.0 1.0
outer loop
vertex -4.76313972081441 2.75 3.75
vertex -4.76313972081441 -2.75 3.75
vertex -3.88908729652601 -3.88908729652601 3.75
endloop
endfacet
facet normal 0.0 0.0 1.0
outer loop
vertex -4.76313972081441 2.75 3.75
vertex -3.88908729652601 -3.88908729652601 3.75
vertex -3.88908729652601 3.88908729652601 3.75
endloop
endfacet
facet normal 0.0 0.0 1.0
outer loop
vertex -3.88908729652601 3.88908729652601 3.75
vertex -3.88908729652601 -3.88908729652601 3.75
vertex -2.75 -4.76313972081441 3.75
endloop
endfacet
facet normal 0.0 0.0 1.0
outer loop
vertex -3.88908729652601 3.88908729652601 3.75
vertex -2.75 -4.76313972081441 3.75
vertex -2.75 4.76313972081441 3.75
endloop
endfacet
facet normal 0.0 0.0 1.0
outer loop
vertex -2.75 4.76313972081441 3.75
vertex -2.75 -4.76313972081441 3.75
vertex -1.42350474806387 -5.31259204458987 3.75
endloop
endfacet
facet normal 0.0 0.0 1.0
outer loop
vertex -2.75 4.76313972081441 3.75
vertex -1.42350474806387 -5.31259204458987 3.75
vertex -1.7 0.0 3.75
endloop
endfacet
facet normal 0.0 0.0 1.0
outer loop
vertex -1.7 0.0 3.75
vertex -1.42350474806387 -5.31259204458987 3.75
vertex -1.64207390469142 -0.439992376674285 3.75
endloop
endfacet
facet normal 0.0 0.0 1.0
outer loop
vertex -1.64207390469142 -0.439992376674285 3.75
vertex -1.42350474806387 -5.31259204458987 3.75
vertex -1.47224318643355 -0.85 3.75
endloop
endfacet
facet normal 0.0 0.0 1.0
outer loop
vertex -1.47224318643355 -0.85 3.75
vertex -1.42350474806387 -5.31259204458987 3.75
vertex -1.20208152801713 -1.20208152801713 3.75
endloop
endfacet
facet normal 0.0 0.0 1.0
outer loop
vertex -1.20208152801713 -1.20208152801713 3.75
vertex -1.42350474806387 -5.31259204458987 3.75
vertex -1.40998324127395e-015 -5.5 3.75
endloop
endfacet
facet normal 0.0 0.0 1.0
outer loop
vertex -1.20208152801713 -1.20208152801713 3.75
vertex -1.40998324127395e-015 -5.5 3.75
vertex -0.850000000000001 -1.47224318643355 3.75
endloop
endfacet
facet normal 0.0 0.0 1.0
outer loop
vertex -0.850000000000001 -1.47224318643355 3.75
vertex -1.40998324127395e-015 -5.5 3.75
vertex -0.439992376674287 -1.64207390469142 3.75
endloop
endfacet
facet normal 0.0 0.0 1.0
outer loop
vertex -0.439992376674287 -1.64207390469142 3.75
vertex -1.40998324127395e-015 -5.5 3.75
vertex 0.0 -1.7 3.75
endloop
endfacet
facet normal 0.0 0.0 1.0
outer loop
vertex 0.0 -1.7 3.75
vertex -1.40998324127395e-015 -5.5 3.75
vertex 1.42350474806386 -5.31259204458988 3.75
endloop
endfacet
facet normal 0.0 0.0 1.0
outer loop
vertex 0.0 -1.7 3.75
vertex 1.42350474806386 -5.31259204458988 3.75
vertex 0.439992376674284 -1.64207390469142 3.75
endloop
endfacet
facet normal 0.0 0.0 1.0
outer loop
vertex 0.439992376674284 -1.64207390469142 3.75
vertex 1.42350474806386 -5.31259204458988 3.75
vertex 0.849999999999998 -1.47224318643355 3.75
endloop
endfacet
facet normal 0.0 0.0 1.0
outer loop
vertex 0.849999999999998 -1.47224318643355 3.75
vertex 1.42350474806386 -5.31259204458988 3.75
vertex 1.20208152801713 -1.20208152801713 3.75
endloop
endfacet
facet normal 0.0 0.0 1.0
outer loop
vertex 1.20208152801713 -1.20208152801713 3.75
vertex 1.42350474806386 -5.31259204458988 3.75
vertex 1.47224318643355 -0.850000000000001 3.75
endloop
endfacet
facet normal 0.0 0.0 1.0
outer loop
vertex 1.47224318643355 -0.850000000000001 3.75
vertex 1.42350474806386 -5.31259204458988 3.75
vertex 2.75 -4.76313972081442 3.75
endloop
endfacet
facet normal 0.0 0.0 1.0
outer loop
vertex 1.47224318643355 -0.850000000000001 3.75
vertex 2.75 -4.76313972081442 3.75
vertex 1.64207390469142 -0.439992376674287 3.75
endloop
endfacet
facet normal 0.0 0.0 1.0
outer loop
vertex 1.64207390469142 -0.439992376674287 3.75
vertex 2.75 -4.76313972081442 3.75
vertex 1.7 0.0 3.75
endloop
endfacet
facet normal 0.0 0.0 1.0
outer loop
vertex -1.7 0.0 3.75
vertex -1.42350474806386 5.31259204458988 3.75
vertex -2.75 4.76313972081441 3.75
endloop
endfacet
facet normal 0.0 0.0 1.0
outer loop
vertex -1.42350474806386 5.31259204458988 3.75
vertex -1.7 0.0 3.75
vertex -1.64207390469142 0.439992376674285 3.75
endloop
endfacet
facet normal 0.0 0.0 1.0
outer loop
vertex -1.42350474806386 5.31259204458988 3.75
vertex -1.64207390469142 0.439992376674285 3.75
vertex -1.47224318643355 0.850000000000001 3.75
endloop
endfacet
facet normal 0.0 0.0 1.0
outer loop
vertex -1.42350474806386 5.31259204458988 3.75
vertex -1.47224318643355 0.850000000000001 3.75
vertex -1.20208152801713 1.20208152801713 3.75
endloop
endfacet
facet normal 0.0 0.0 1.0
outer loop
vertex -1.42350474806386 5.31259204458988 3.75
vertex -1.20208152801713 1.20208152801713 3.75
vertex 0.0 5.5 3.75
endloop
endfacet
facet normal 0.0 0.0 1.0
outer loop
vertex 0.0 5.5 3.75
vertex -1.20208152801713 1.20208152801713 3.75
vertex -0.85 1.47224318643355 3.75
endloop
endfacet
facet normal 0.0 0.0 1.0
outer loop
vertex 0.0 5.5 3.75
vertex -0.85 1.47224318643355 3.75
vertex -0.439992376674285 1.64207390469142 3.75
endloop
endfacet
facet normal 0.0 0.0 1.0
outer loop
vertex 0.0 5.5 3.75
vertex -0.439992376674285 1.64207390469142 3.75
vertex 0.0 1.7 3.75
endloop
endfacet
facet normal 0.0 0.0 1.0
outer loop
vertex 0.0 5.5 3.75
vertex 0.0 1.7 3.75
vertex 0.439992376674285 1.64207390469142 3.75
endloop
endfacet
facet normal 0.0 0.0 1.0
outer loop
vertex 0.0 5.5 3.75
vertex 0.439992376674285 1.64207390469142 3.75
vertex 1.42350474806387 5.31259204458987 3.75
endloop
endfacet
facet normal 0.0 0.0 1.0
outer loop
vertex 1.42350474806387 5.31259204458987 3.75
vertex 0.439992376674285 1.64207390469142 3.75
vertex 0.85 1.47224318643355 3.75
endloop
endfacet
facet normal 0.0 0.0 1.0
outer loop
vertex 1.42350474806387 5.31259204458987 3.75
vertex 0.85 1.47224318643355 3.75
vertex 1.20208152801713 1.20208152801713 3.75
endloop
endfacet
facet normal 0.0 0.0 1.0
outer loop
vertex 1.42350474806387 5.31259204458987 3.75
vertex 1.20208152801713 1.20208152801713 3.75
vertex 1.47224318643355 0.85 3.75
endloop
endfacet
facet normal 0.0 0.0 1.0
outer loop
vertex 1.42350474806387 5.31259204458987 3.75
vertex 1.47224318643355 0.85 3.75
vertex 2.75 4.76313972081441 3.75
endloop
endfacet
facet normal 0.0 0.0 1.0
outer loop
vertex 2.75 4.76313972081441 3.75
vertex 1.47224318643355 0.85 3.75
vertex 1.64207390469142 0.439992376674285 3.75
endloop
endfacet
facet normal 0.0 0.0 1.0
outer loop
vertex 2.75 4.76313972081441 3.75
vertex 1.64207390469142 0.439992376674285 3.75
vertex 1.7 0.0 3.75
endloop
endfacet
facet normal 0.0 0.0 1.0
outer loop
vertex 2.75 4.76313972081441 3.75
vertex 1.7 0.0 3.75
vertex 2.75 -4.76313972081442 3.75
endloop
endfacet
facet normal 0.0 0.0 1.0
outer loop
vertex 2.75 4.76313972081441 3.75
vertex 2.75 -4.76313972081442 3.75
vertex 3.88908729652601 -3.88908729652601 3.75
endloop
endfacet
facet normal 0.0 0.0 1.0
outer loop
vertex 2.75 4.76313972081441 3.75
vertex 3.88908729652601 -3.88908729652601 3.75
vertex 3.88908729652601 3.88908729652601 3.75
endloop
endfacet
facet normal 0.0 0.0 1.0
outer loop
vertex 3.88908729652601 3.88908729652601 3.75
vertex 3.88908729652601 -3.88908729652601 3.75
vertex 4.76313972081441 -2.75 3.75
endloop
endfacet
facet normal 0.0 0.0 1.0
outer loop
vertex 3.88908729652601 3.88908729652601 3.75
vertex 4.76313972081441 -2.75 3.75
vertex 4.76313972081441 2.75 3.75
endloop
endfacet
facet normal 0.0 0.0 1.0
outer loop
vertex 4.76313972081441 2.75 3.75
vertex 4.76313972081441 -2.75 3.75
vertex 5.31259204458988 -1.42350474806387 3.75
endloop
endfacet
facet normal 0.0 0.0 1.0
outer loop
vertex 4.76313972081441 2.75 3.75
vertex 5.31259204458988 -1.42350474806387 3.75
vertex 5.31259204458988 1.42350474806386 3.75
endloop
endfacet
facet normal 0.0 0.0 1.0
outer loop
vertex 5.31259204458988 1.42350474806386 3.75
vertex 5.31259204458988 -1.42350474806387 3.75
vertex 5.5 0.0 3.75
endloop
endfacet
facet normal -0.965925826289068 0.258819045102521 -2.37972362470664e-018
outer loop
vertex -5.31259204458988 1.42350474806387 3.75
vertex -5.5 0.0 1.0
vertex -5.5 0.0 3.75
endloop
endfacet
facet normal -1.0 1.33666648434704e-016 1.48005762617756e-018
outer loop
vertex -5.5 0.0 1.0
vertex -5.31259204458988 1.42350474806387 3.75
vertex -5.31259204458988 1.42350474806387 1.0
endloop
endfacet
facet normal -0.707106781186547 0.707106781186548 4.27120285646665e-018
outer loop
vertex -3.88908729652601 3.88908729652601 3.75
vertex -4.76313972081441 2.75 1.0
vertex -4.76313972081441 2.75 3.75
endloop
endfacet
facet normal -0.866025403784439 0.5 -3.33532753656958e-019
outer loop
vertex -4.76313972081441 2.75 1.0
vertex -3.88908729652601 3.88908729652601 3.75
vertex -3.88908729652601 3.88908729652601 1.0
endloop
endfacet
facet normal 0.965925826289068 0.258819045102521 -2.12073294635197e-018
outer loop
vertex 5.31259204458988 1.42350474806386 1.0
vertex 5.5 0.0 3.75
vertex 5.5 0.0 1.0
endloop
endfacet
facet normal 1.0 -2.40599967182466e-016 -3.05266736955761e-019
outer loop
vertex 5.5 0.0 3.75
vertex 5.31259204458988 1.42350474806386 1.0
vertex 5.31259204458988 1.42350474806386 3.75
endloop
endfacet
facet normal 1.0 -2.40599967182466e-016 -3.05266736955761e-019
outer loop
vertex 5.5 0.0 1.0
vertex 5.31259204458988 -1.42350474806387 3.75
vertex 5.31259204458988 -1.42350474806387 1.0
endloop
endfacet
facet normal 0.965925826289068 -0.258819045102521 9.2046942217543e-019
outer loop
vertex 5.31259204458988 -1.42350474806387 3.75
vertex 5.5 0.0 1.0
vertex 5.5 0.0 3.75
endloop
endfacet
facet normal 0.965925826289068 -0.258819045102521 9.2046942217543e-019
outer loop
vertex 5.31259204458988 -1.42350474806387 1.0
vertex 4.76313972081441 -2.75 3.75
vertex 4.76313972081441 -2.75 1.0
endloop
endfacet
facet normal 0.866025403784438 -0.500000000000001 4.14145118244697e-018
outer loop
vertex 4.76313972081441 -2.75 3.75
vertex 5.31259204458988 -1.42350474806387 1.0
vertex 5.31259204458988 -1.42350474806387 3.75
endloop
endfacet
facet normal 0.866025403784438 -0.500000000000001 4.14145118244697e-018
outer loop
vertex 4.76313972081441 -2.75 1.0
vertex 3.88908729652601 -3.88908729652601 3.75
vertex 3.88908729652601 -3.88908729652601 1.0
endloop
endfacet
facet normal 0.707106781186547 -0.707106781186548 1.91974524846126e-018
outer loop
vertex 3.88908729652601 -3.88908729652601 3.75
vertex 4.76313972081441 -2.75 1.0
vertex 4.76313972081441 -2.75 3.75
endloop
endfacet
facet normal 0.25881904510252 -0.965925826289068 2.65951772670771e-018
outer loop
vertex 1.42350474806386 -5.31259204458988 3.75
vertex -1.40998324127395e-015 -5.5 1.0
vertex 1.42350474806386 -5.31259204458988 1.0
endloop
endfacet
facet normal -2.85155516660701e-016 -1.0 -3.27716204499344e-032
outer loop
vertex -1.40998324127395e-015 -5.5 1.0
vertex 1.42350474806386 -5.31259204458988 3.75
vertex -1.40998324127395e-015 -5.5 3.75
endloop
endfacet
facet normal -0.258819045102521 -0.965925826289068 -8.6952415226615e-019
outer loop
vertex -1.42350474806387 -5.31259204458987 3.75
vertex -2.75 -4.76313972081441 1.0
vertex -1.42350474806387 -5.31259204458987 1.0
endloop
endfacet
facet normal -0.500000000000001 -0.866025403784438 2.35145760800542e-018
outer loop
vertex -2.75 -4.76313972081441 1.0
vertex -1.42350474806387 -5.31259204458987 3.75
vertex -2.75 -4.76313972081441 3.75
endloop
endfacet
facet normal -0.258819045102521 0.965925826289068 5.64257415310392e-019
outer loop
vertex -1.42350474806386 5.31259204458988 3.75
vertex 0.0 5.5 1.0
vertex -1.42350474806386 5.31259204458988 1.0
endloop
endfacet
facet normal 1.96044417704232e-016 1.0 8.69524152266107e-019
outer loop
vertex 0.0 5.5 1.0
vertex -1.42350474806386 5.31259204458988 3.75
vertex 0.0 5.5 3.75
endloop
endfacet
facet normal -2.85155516660701e-016 -1.0 -3.27716204499344e-032
outer loop
vertex -1.40998324127395e-015 -5.5 3.75
vertex -1.42350474806387 -5.31259204458987 1.0
vertex -1.40998324127395e-015 -5.5 1.0
endloop
endfacet
facet normal -0.258819045102521 -0.965925826289068 -8.6952415226615e-019
outer loop
vertex -1.42350474806387 -5.31259204458987 1.0
vertex -1.40998324127395e-015 -5.5 3.75
vertex -1.42350474806387 -5.31259204458987 3.75
endloop
endfacet
facet normal 0.866025403784439 0.5 -7.65245113201117e-019
outer loop
vertex 4.76313972081441 2.75 1.0
vertex 5.31259204458988 1.42350474806386 3.75
vertex 5.31259204458988 1.42350474806386 1.0
endloop
endfacet
facet normal 0.965925826289068 0.258819045102521 -2.12073294635197e-018
outer loop
vertex 5.31259204458988 1.42350474806386 3.75
vertex 4.76313972081441 2.75 1.0
vertex 4.76313972081441 2.75 3.75
endloop
endfacet
facet normal 0.707106781186547 -0.707106781186548 1.91974524846126e-018
outer loop
vertex 3.88908729652601 -3.88908729652601 3.75
vertex 2.75 -4.76313972081442 1.0
vertex 3.88908729652601 -3.88908729652601 1.0
endloop
endfacet
facet normal 0.5 -0.866025403784439 1.35828121489747e-018
outer loop
vertex 2.75 -4.76313972081442 1.0
vertex 3.88908729652601 -3.88908729652601 3.75
vertex 2.75 -4.76313972081442 3.75
endloop
endfacet
facet normal 0.5 -0.866025403784439 1.35828121489747e-018
outer loop
vertex 2.75 -4.76313972081442 3.75
vertex 1.42350474806386 -5.31259204458988 1.0
vertex 2.75 -4.76313972081442 1.0
endloop
endfacet
facet normal 0.25881904510252 -0.965925826289068 2.65951772670771e-018
outer loop
vertex 1.42350474806386 -5.31259204458988 1.0
vertex 2.75 -4.76313972081442 3.75
vertex 1.42350474806386 -5.31259204458988 3.75
endloop
endfacet
facet normal 1.96044417704232e-016 1.0 8.69524152266107e-019
outer loop
vertex 0.0 5.5 3.75
vertex 1.42350474806387 5.31259204458987 1.0
vertex 0.0 5.5 1.0
endloop
endfacet
facet normal 0.258819045102521 0.965925826289068 -5.89730050265046e-019
outer loop
vertex 1.42350474806387 5.31259204458987 1.0
vertex 0.0 5.5 3.75
vertex 1.42350474806387 5.31259204458987 3.75
endloop
endfacet
facet normal 0.258819045102521 0.965925826289068 -5.89730050265046e-019
outer loop
vertex 1.42350474806387 5.31259204458987 3.75
vertex 2.75 4.76313972081441 1.0
vertex 1.42350474806387 5.31259204458987 1.0
endloop
endfacet
facet normal 0.5 0.866025403784439 -1.39100775019311e-018
outer loop
vertex 2.75 4.76313972081441 1.0
vertex 1.42350474806387 5.31259204458987 3.75
vertex 2.75 4.76313972081441 3.75
endloop
endfacet
facet normal 0.5 0.866025403784439 -1.39100775019311e-018
outer loop
vertex 2.75 4.76313972081441 3.75
vertex 3.88908729652601 3.88908729652601 1.0
vertex 2.75 4.76313972081441 1.0
endloop
endfacet
facet normal 0.707106781186548 0.707106781186547 1.42373428548889e-018
outer loop
vertex 3.88908729652601 3.88908729652601 1.0
vertex 2.75 4.76313972081441 3.75
vertex 3.88908729652601 3.88908729652601 3.75
endloop
endfacet
facet normal -0.707106781186547 0.707106781186548 4.27120285646665e-018
outer loop
vertex -3.88908729652601 3.88908729652601 3.75
vertex -2.75 4.76313972081441 1.0
vertex -3.88908729652601 3.88908729652601 1.0
endloop
endfacet
facet normal -0.5 0.866025403784439 1.91974524846125e-018
outer loop
vertex -2.75 4.76313972081441 1.0
vertex -3.88908729652601 3.88908729652601 3.75
vertex -2.75 4.76313972081441 3.75
endloop
endfacet
facet normal -0.5 0.866025403784439 1.91974524846125e-018
outer loop
vertex -2.75 4.76313972081441 3.75
vertex -1.42350474806386 5.31259204458988 1.0
vertex -2.75 4.76313972081441 1.0
endloop
endfacet
facet normal -0.258819045102521 0.965925826289068 5.64257415310392e-019
outer loop
vertex -1.42350474806386 5.31259204458988 1.0
vertex -2.75 4.76313972081441 3.75
vertex -1.42350474806386 5.31259204458988 3.75
endloop
endfacet
facet normal -1.0 1.33666648434704e-016 1.48005762617756e-018
outer loop
vertex -5.5 0.0 3.75
vertex -5.31259204458988 -1.42350474806386 1.0
vertex -5.31259204458988 -1.42350474806386 3.75
endloop
endfacet
facet normal -0.965925826289068 -0.25881904510252 6.02049463287301e-018
outer loop
vertex -5.31259204458988 -1.42350474806386 1.0
vertex -5.5 0.0 3.75
vertex -5.5 0.0 1.0
endloop
endfacet
facet normal 0.0 0.0 1.0
outer loop
vertex -2.43820313998676 -7.09261344274159 0.0
vertex -1.64207390469142 -0.439992376674285 0.0
vertex -1.7 0.0 0.0
endloop
endfacet
facet normal 0.0 0.0 1.0
outer loop
vertex -1.64207390469142 -0.439992376674285 0.0
vertex -2.43820313998676 -7.09261344274159 0.0
vertex -0.519419944120637 -7.48199190868646 0.0
endloop
endfacet
facet normal 0.0 0.0 1.0
outer loop
vertex -1.64207390469142 -0.439992376674285 0.0
vertex -0.519419944120637 -7.48199190868646 0.0
vertex -1.47224318643355 -0.85 0.0
endloop
endfacet
facet normal 0.0 0.0 1.0
outer loop
vertex -1.47224318643355 -0.85 0.0
vertex -0.519419944120637 -7.48199190868646 0.0
vertex -1.20208152801713 -1.20208152801713 0.0
endloop
endfacet
facet normal 0.0 0.0 1.0
outer loop
vertex -1.20208152801713 -1.20208152801713 0.0
vertex -0.519419944120637 -7.48199190868646 0.0
vertex -0.850000000000001 -1.47224318643355 0.0
endloop
endfacet
facet normal 0.0 0.0 1.0
outer loop
vertex -0.850000000000001 -1.47224318643355 0.0
vertex -0.519419944120637 -7.48199190868646 0.0
vertex -0.439992376674287 -1.64207390469142 0.0
endloop
endfacet
facet normal 0.0 0.0 1.0
outer loop
vertex -0.439992376674287 -1.64207390469142 0.0
vertex -0.519419944120637 -7.48199190868646 0.0
vertex 1.43476086255527 -7.3614849906306 0.0
endloop
endfacet
facet normal 0.0 0.0 1.0
outer loop
vertex -0.439992376674287 -1.64207390469142 0.0
vertex 1.43476086255527 -7.3614849906306 0.0
vertex 0.0 -1.7 0.0
endloop
endfacet
facet normal 0.0 0.0 1.0
outer loop
vertex 0.0 -1.7 0.0
vertex 1.43476086255527 -7.3614849906306 0.0
vertex 0.439992376674284 -1.64207390469142 0.0
endloop
endfacet
facet normal 0.0 0.0 1.0
outer loop
vertex 0.439992376674284 -1.64207390469142 0.0
vertex 1.43476086255527 -7.3614849906306 0.0
vertex 0.849999999999998 -1.47224318643355 0.0
endloop
endfacet
facet normal 0.0 0.0 1.0
outer loop
vertex 0.849999999999998 -1.47224318643355 0.0
vertex 1.43476086255527 -7.3614849906306 0.0
vertex 1.20208152801713 -1.20208152801713 0.0
endloop
endfacet
facet normal 0.0 0.0 1.0
outer loop
vertex 1.20208152801713 -1.20208152801713 0.0
vertex 1.43476086255527 -7.3614849906306 0.0
vertex 1.47224318643355 -0.850000000000001 0.0
endloop
endfacet
facet normal 0.0 0.0 1.0
outer loop
vertex 1.47224318643355 -0.850000000000001 0.0
vertex 1.43476086255527 -7.3614849906306 0.0
vertex 3.29116508750247 -6.73930503589241 0.0
endloop
endfacet
facet normal 0.0 0.0 1.0
outer loop
vertex 1.47224318643355 -0.850000000000001 0.0
vertex 3.29116508750247 -6.73930503589241 0.0
vertex 1.64207390469142 -0.439992376674287 0.0
endloop
endfacet
facet normal 0.0 0.0 1.0
outer loop
vertex 1.64207390469142 -0.439992376674287 0.0
vertex 3.29116508750247 -6.73930503589241 0.0
vertex 1.7 0.0 0.0
endloop
endfacet
facet normal 0.0 0.0 1.0
outer loop
vertex 1.7 0.0 0.0
vertex 3.29116508750247 -6.73930503589241 0.0
vertex 2.43820313998676 7.09261344274159 0.0
endloop
endfacet
facet normal 0.0 0.0 1.0
outer loop
vertex 2.43820313998676 7.09261344274159 0.0
vertex 3.29116508750247 -6.73930503589241 0.0
vertex 4.19082682118399 6.21988509177178 0.0
endloop
endfacet
facet normal 0.0 0.0 1.0
outer loop
vertex 4.19082682118399 6.21988509177178 0.0
vertex 3.29116508750247 -6.73930503589241 0.0
vertex 4.92328185064384 -5.65785258018632 0.0
endloop
endfacet
facet normal 0.0 0.0 1.0
outer loop
vertex 4.19082682118399 6.21988509177178 0.0
vertex 4.92328185064384 -5.65785258018632 0.0
vertex 5.65785258018632 4.92328185064384 0.0
endloop
endfacet
facet normal 0.0 0.0 1.0
outer loop
vertex 5.65785258018632 4.92328185064384 0.0
vertex 4.92328185064384 -5.65785258018632 0.0
vertex 6.21988509177178 -4.190826821184 0.0
endloop
endfacet
facet normal 0.0 0.0 1.0
outer loop
vertex 5.65785258018632 4.92328185064384 0.0
vertex 6.21988509177178 -4.190826821184 0.0
vertex 6.73930503589242 3.29116508750247 0.0
endloop
endfacet
facet normal 0.0 0.0 1.0
outer loop
vertex 6.73930503589242 3.29116508750247 0.0
vertex 6.21988509177178 -4.190826821184 0.0
vertex 7.09261344274159 -2.43820313998676 0.0
endloop
endfacet
facet normal 0.0 0.0 1.0
outer loop
vertex 6.73930503589242 3.29116508750247 0.0
vertex 7.09261344274159 -2.43820313998676 0.0
vertex 7.3614849906306 1.43476086255527 0.0
endloop
endfacet
facet normal 0.0 0.0 1.0
outer loop
vertex 7.3614849906306 1.43476086255527 0.0
vertex 7.09261344274159 -2.43820313998676 0.0
vertex 7.48199190868646 -0.519419944120634 0.0
endloop
endfacet
facet normal 0.0 0.0 1.0
outer loop
vertex -7.3614849906306 -1.43476086255527 0.0
vertex -7.09261344274159 2.43820313998676 0.0
vertex -7.48199190868646 0.519419944120637 0.0
endloop
endfacet
facet normal 0.0 0.0 1.0
outer loop
vertex -7.09261344274159 2.43820313998676 0.0
vertex -7.3614849906306 -1.43476086255527 0.0
vertex -6.73930503589242 -3.29116508750247 0.0
endloop
endfacet
facet normal 0.0 0.0 1.0
outer loop
vertex -7.09261344274159 2.43820313998676 0.0
vertex -6.73930503589242 -3.29116508750247 0.0
vertex -6.21988509177178 4.190826821184 0.0
endloop
endfacet
facet normal 0.0 0.0 1.0
outer loop
vertex -6.21988509177178 4.190826821184 0.0
vertex -6.73930503589242 -3.29116508750247 0.0
vertex -5.65785258018632 -4.92328185064384 0.0
endloop
endfacet
facet normal 0.0 0.0 1.0
outer loop
vertex -6.21988509177178 4.190826821184 0.0
vertex -5.65785258018632 -4.92328185064384 0.0
vertex -4.92328185064384 5.65785258018632 0.0
endloop
endfacet
facet normal 0.0 0.0 1.0
outer loop
vertex -4.92328185064384 5.65785258018632 0.0
vertex -5.65785258018632 -4.92328185064384 0.0
vertex -4.190826821184 -6.21988509177178 0.0
endloop
endfacet
facet normal 0.0 0.0 1.0
outer loop
vertex -4.92328185064384 5.65785258018632 0.0
vertex -4.190826821184 -6.21988509177178 0.0
vertex -3.29116508750247 6.73930503589241 0.0
endloop
endfacet
facet normal 0.0 0.0 1.0
outer loop
vertex -3.29116508750247 6.73930503589241 0.0
vertex -4.190826821184 -6.21988509177178 0.0
vertex -2.43820313998676 -7.09261344274159 0.0
endloop
endfacet
facet normal 0.0 0.0 1.0
outer loop
vertex -3.29116508750247 6.73930503589241 0.0
vertex -2.43820313998676 -7.09261344274159 0.0
vertex -1.43476086255527 7.3614849906306 0.0
endloop
endfacet
facet normal 0.0 0.0 1.0
outer loop
vertex -1.43476086255527 7.3614849906306 0.0
vertex -2.43820313998676 -7.09261344274159 0.0
vertex -1.7 0.0 0.0
endloop
endfacet
facet normal 0.0 0.0 1.0
outer loop
vertex -1.43476086255527 7.3614849906306 0.0
vertex -1.7 0.0 0.0
vertex -1.64207390469142 0.439992376674285 0.0
endloop
endfacet
facet normal 0.0 0.0 1.0
outer loop
vertex -1.43476086255527 7.3614849906306 0.0
vertex -1.64207390469142 0.439992376674285 0.0
vertex -1.47224318643355 0.850000000000001 0.0
endloop
endfacet
facet normal 0.0 0.0 1.0
outer loop
vertex -1.43476086255527 7.3614849906306 0.0
vertex -1.47224318643355 0.850000000000001 0.0
vertex -1.20208152801713 1.20208152801713 0.0
endloop
endfacet
facet normal 0.0 0.0 1.0
outer loop
vertex -1.43476086255527 7.3614849906306 0.0
vertex -1.20208152801713 1.20208152801713 0.0
vertex 0.519419944120633 7.48199190868646 0.0
endloop
endfacet
facet normal 0.0 0.0 1.0
outer loop
vertex 0.519419944120633 7.48199190868646 0.0
vertex -1.20208152801713 1.20208152801713 0.0
vertex -0.85 1.47224318643355 0.0
endloop
endfacet
facet normal 0.0 0.0 1.0
outer loop
vertex 0.519419944120633 7.48199190868646 0.0
vertex -0.85 1.47224318643355 0.0
vertex -0.439992376674285 1.64207390469142 0.0
endloop
endfacet
facet normal 0.0 0.0 1.0
outer loop
vertex 0.519419944120633 7.48199190868646 0.0
vertex -0.439992376674285 1.64207390469142 0.0
vertex 0.0 1.7 0.0
endloop
endfacet
facet normal 0.0 0.0 1.0
outer loop
vertex 0.519419944120633 7.48199190868646 0.0
vertex 0.0 1.7 0.0
vertex 0.439992376674285 1.64207390469142 0.0
endloop
endfacet
facet normal 0.0 0.0 1.0
outer loop
vertex 0.519419944120633 7.48199190868646 0.0
vertex 0.439992376674285 1.64207390469142 0.0
vertex 0.85 1.47224318643355 0.0
endloop
endfacet
facet normal 0.0 0.0 1.0
outer loop
vertex 0.519419944120633 7.48199190868646 0.0
vertex 0.85 1.47224318643355 0.0
vertex 2.43820313998676 7.09261344274159 0.0
endloop
endfacet
facet normal 0.0 0.0 1.0
outer loop
vertex 2.43820313998676 7.09261344274159 0.0
vertex 0.85 1.47224318643355 0.0
vertex 1.20208152801713 1.20208152801713 0.0
endloop
endfacet
facet normal 0.0 0.0 1.0
outer loop
vertex 2.43820313998676 7.09261344274159 0.0
vertex 1.20208152801713 1.20208152801713 0.0
vertex 1.47224318643355 0.85 0.0
endloop
endfacet
facet normal 0.0 0.0 1.0
outer loop
vertex 2.43820313998676 7.09261344274159 0.0
vertex 1.47224318643355 0.85 0.0
vertex 1.64207390469142 0.439992376674285 0.0
endloop
endfacet
facet normal 0.0 0.0 1.0
outer loop
vertex 2.43820313998676 7.09261344274159 0.0
vertex 1.64207390469142 0.439992376674285 0.0
vertex 1.7 0.0 0.0
endloop
endfacet
facet normal -0.981531332084081 -0.191301448340703 0.0
outer loop
vertex -7.3614849906306 -1.43476086255527 1.0
vertex -6.73930503589242 -3.29116508750247 0.0
vertex -6.73930503589242 -3.29116508750247 1.0
endloop
endfacet
facet normal -0.898574004785656 -0.438822011666996 0.0
outer loop
vertex -6.73930503589242 -3.29116508750247 0.0
vertex -7.3614849906306 -1.43476086255527 1.0
vertex -7.3614849906306 -1.43476086255527 0.0
endloop
endfacet
facet normal -0.997598921158195 0.0692559925494178 0.0
outer loop
vertex -7.48199190868646 0.519419944120637 1.0
vertex -7.3614849906306 -1.43476086255527 0.0
vertex -7.3614849906306 -1.43476086255527 1.0
endloop
endfacet
facet normal -0.981531332084081 -0.191301448340703 0.0
outer loop
vertex -7.3614849906306 -1.43476086255527 0.0
vertex -7.48199190868646 0.519419944120637 1.0
vertex -7.48199190868646 0.519419944120637 0.0
endloop
endfacet
facet normal -0.945681792365545 0.325093751998235 0.0
outer loop
vertex -7.09261344274159 2.43820313998676 1.0
vertex -7.48199190868646 0.519419944120637 0.0
vertex -7.48199190868646 0.519419944120637 1.0
endloop
endfacet
facet normal -0.997598921158195 0.0692559925494178 0.0
outer loop
vertex -7.48199190868646 0.519419944120637 0.0
vertex -7.09261344274159 2.43820313998676 1.0
vertex -7.09261344274159 2.43820313998676 0.0
endloop
endfacet
facet normal 0.069255992549418 0.997598921158195 0.0
outer loop
vertex 0.519419944120633 7.48199190868646 1.0
vertex 2.43820313998676 7.09261344274159 0.0
vertex 0.519419944120633 7.48199190868646 0.0
endloop
endfacet
facet normal 0.325093751998235 0.945681792365545 0.0
outer loop
vertex 2.43820313998676 7.09261344274159 0.0
vertex 0.519419944120633 7.48199190868646 1.0
vertex 2.43820313998676 7.09261344274159 1.0
endloop
endfacet
facet normal 0.997598921158195 -0.0692559925494176 0.0
outer loop
vertex 7.48199190868646 -0.519419944120634 0.0
vertex 7.09261344274159 -2.43820313998676 1.0
vertex 7.09261344274159 -2.43820313998676 0.0
endloop
endfacet
facet normal 0.945681792365545 -0.325093751998235 0.0
outer loop
vertex 7.09261344274159 -2.43820313998676 1.0
vertex 7.48199190868646 -0.519419944120634 0.0
vertex 7.48199190868646 -0.519419944120634 1.0
endloop
endfacet
facet normal 0.754380344024842 0.656437580085846 0.0
outer loop
vertex 5.65785258018632 4.92328185064384 0.0
vertex 6.73930503589242 3.29116508750247 1.0
vertex 6.73930503589242 3.29116508750247 0.0
endloop
endfacet
facet normal 0.898574004785655 0.438822011666996 0.0
outer loop
vertex 6.73930503589242 3.29116508750247 1.0
vertex 5.65785258018632 4.92328185064384 0.0
vertex 5.65785258018632 4.92328185064384 1.0
endloop
endfacet
facet normal 0.945681792365545 -0.325093751998235 0.0
outer loop
vertex 7.09261344274159 -2.43820313998676 0.0
vertex 6.21988509177178 -4.190826821184 1.0
vertex 6.21988509177178 -4.190826821184 0.0
endloop
endfacet
facet normal 0.829318012236237 -0.5587769094912 0.0
outer loop
vertex 6.21988509177178 -4.190826821184 1.0
vertex 7.09261344274159 -2.43820313998676 0.0
vertex 7.09261344274159 -2.43820313998676 1.0
endloop
endfacet
facet normal -0.191301448340703 0.981531332084081 0.0
outer loop
vertex -1.43476086255527 7.3614849906306 1.0
vertex 0.519419944120633 7.48199190868646 0.0
vertex -1.43476086255527 7.3614849906306 0.0
endloop
endfacet
facet normal 0.069255992549418 0.997598921158195 0.0
outer loop
vertex 0.519419944120633 7.48199190868646 0.0
vertex -1.43476086255527 7.3614849906306 1.0
vertex 0.519419944120633 7.48199190868646 1.0
endloop
endfacet
facet normal 0.898574004785655 0.438822011666996 0.0
outer loop
vertex 6.73930503589242 3.29116508750247 0.0
vertex 7.3614849906306 1.43476086255527 1.0
vertex 7.3614849906306 1.43476086255527 0.0
endloop
endfacet
facet normal 0.981531332084081 0.191301448340703 0.0
outer loop
vertex 7.3614849906306 1.43476086255527 1.0
vertex 6.73930503589242 3.29116508750247 0.0
vertex 6.73930503589242 3.29116508750247 1.0
endloop
endfacet
facet normal 0.0 0.0 1.0
outer loop
vertex -5.65785258018632 -4.92328185064384 1.0
vertex -5.31259204458988 -1.42350474806386 1.0
vertex -5.5 0.0 1.0
endloop
endfacet
facet normal 0.0 0.0 1.0
outer loop
vertex -5.31259204458988 -1.42350474806386 1.0
vertex -5.65785258018632 -4.92328185064384 1.0
vertex -4.190826821184 -6.21988509177178 1.0
endloop
endfacet
facet normal 0.0 0.0 1.0
outer loop
vertex -5.31259204458988 -1.42350474806386 1.0
vertex -4.190826821184 -6.21988509177178 1.0
vertex -4.76313972081441 -2.75 1.0
endloop
endfacet
facet normal 0.0 0.0 1.0
outer loop
vertex -4.76313972081441 -2.75 1.0
vertex -4.190826821184 -6.21988509177178 1.0
vertex -3.88908729652601 -3.88908729652601 1.0
endloop
endfacet
facet normal 0.0 0.0 1.0
outer loop
vertex -3.88908729652601 -3.88908729652601 1.0
vertex -4.190826821184 -6.21988509177178 1.0
vertex -2.43820313998676 -7.09261344274159 1.0
endloop
endfacet
facet normal 0.0 0.0 1.0
outer loop
vertex -3.88908729652601 -3.88908729652601 1.0
vertex -2.43820313998676 -7.09261344274159 1.0
vertex -2.75 -4.76313972081441 1.0
endloop
endfacet
facet normal 0.0 0.0 1.0
outer loop
vertex -2.75 -4.76313972081441 1.0
vertex -2.43820313998676 -7.09261344274159 1.0
vertex -1.42350474806387 -5.31259204458987 1.0
endloop
endfacet
facet normal 0.0 0.0 1.0
outer loop
vertex -1.42350474806387 -5.31259204458987 1.0
vertex -2.43820313998676 -7.09261344274159 1.0
vertex -0.519419944120637 -7.48199190868646 1.0
endloop
endfacet
facet normal 0.0 0.0 1.0
outer loop
vertex -1.42350474806387 -5.31259204458987 1.0
vertex -0.519419944120637 -7.48199190868646 1.0
vertex -1.40998324127395e-015 -5.5 1.0
endloop
endfacet
facet normal 0.0 0.0 1.0
outer loop
vertex -1.40998324127395e-015 -5.5 1.0
vertex -0.519419944120637 -7.48199190868646 1.0
vertex 1.43476086255527 -7.3614849906306 1.0
endloop
endfacet
facet normal 0.0 0.0 1.0
outer loop
vertex -1.40998324127395e-015 -5.5 1.0
vertex 1.43476086255527 -7.3614849906306 1.0
vertex 1.42350474806386 -5.31259204458988 1.0
endloop
endfacet
facet normal 0.0 0.0 1.0
outer loop
vertex 1.42350474806386 -5.31259204458988 1.0
vertex 1.43476086255527 -7.3614849906306 1.0
vertex 2.75 -4.76313972081442 1.0
endloop
endfacet
facet normal 0.0 0.0 1.0
outer loop
vertex 2.75 -4.76313972081442 1.0
vertex 1.43476086255527 -7.3614849906306 1.0
vertex 3.29116508750247 -6.73930503589241 1.0
endloop
endfacet
facet normal 0.0 0.0 1.0
outer loop
vertex 2.75 -4.76313972081442 1.0
vertex 3.29116508750247 -6.73930503589241 1.0
vertex 3.88908729652601 -3.88908729652601 1.0
endloop
endfacet
facet normal 0.0 0.0 1.0
outer loop
vertex 3.88908729652601 -3.88908729652601 1.0
vertex 3.29116508750247 -6.73930503589241 1.0
vertex 4.92328185064384 -5.65785258018632 1.0
endloop
endfacet
facet normal 0.0 0.0 1.0
outer loop
vertex 3.88908729652601 -3.88908729652601 1.0
vertex 4.92328185064384 -5.65785258018632 1.0
vertex 4.76313972081441 -2.75 1.0
endloop
endfacet
facet normal 0.0 0.0 1.0
outer loop
vertex 4.76313972081441 -2.75 1.0
vertex 4.92328185064384 -5.65785258018632 1.0
vertex 5.31259204458988 -1.42350474806387 1.0
endloop
endfacet
facet normal 0.0 0.0 1.0
outer loop
vertex 5.31259204458988 -1.42350474806387 1.0
vertex 4.92328185064384 -5.65785258018632 1.0
vertex 6.21988509177178 -4.190826821184 1.0
endloop
endfacet
facet normal 0.0 0.0 1.0
outer loop
vertex 5.31259204458988 -1.42350474806387 1.0
vertex 6.21988509177178 -4.190826821184 1.0
vertex 5.5 0.0 1.0
endloop
endfacet
facet normal 0.0 0.0 1.0
outer loop
vertex 5.5 0.0 1.0
vertex 6.21988509177178 -4.190826821184 1.0
vertex 5.65785258018632 4.92328185064384 1.0
endloop
endfacet
facet normal 0.0 0.0 1.0
outer loop
vertex 5.65785258018632 4.92328185064384 1.0
vertex 6.21988509177178 -4.190826821184 1.0
vertex 6.73930503589242 3.29116508750247 1.0
endloop
endfacet
facet normal 0.0 0.0 1.0
outer loop
vertex 6.73930503589242 3.29116508750247 1.0
vertex 6.21988509177178 -4.190826821184 1.0
vertex 7.09261344274159 -2.43820313998676 1.0
endloop
endfacet
facet normal 0.0 0.0 1.0
outer loop
vertex 6.73930503589242 3.29116508750247 1.0
vertex 7.09261344274159 -2.43820313998676 1.0
vertex 7.3614849906306 1.43476086255527 1.0
endloop
endfacet
facet normal 0.0 0.0 1.0
outer loop
vertex 7.3614849906306 1.43476086255527 1.0
vertex 7.09261344274159 -2.43820313998676 1.0
vertex 7.48199190868646 -0.519419944120634 1.0
endloop
endfacet
facet normal 0.0 0.0 1.0
outer loop
vertex -7.3614849906306 -1.43476086255527 1.0
vertex -7.09261344274159 2.43820313998676 1.0
vertex -7.48199190868646 0.519419944120637 1.0
endloop
endfacet
facet normal 0.0 0.0 1.0
outer loop
vertex -7.09261344274159 2.43820313998676 1.0
vertex -7.3614849906306 -1.43476086255527 1.0
vertex -6.73930503589242 -3.29116508750247 1.0
endloop
endfacet
facet normal 0.0 0.0 1.0
outer loop
vertex -7.09261344274159 2.43820313998676 1.0
vertex -6.73930503589242 -3.29116508750247 1.0
vertex -6.21988509177178 4.190826821184 1.0
endloop
endfacet
facet normal 0.0 0.0 1.0
outer loop
vertex -6.21988509177178 4.190826821184 1.0
vertex -6.73930503589242 -3.29116508750247 1.0
vertex -5.65785258018632 -4.92328185064384 1.0
endloop
endfacet
facet normal 0.0 0.0 1.0
outer loop
vertex -6.21988509177178 4.190826821184 1.0
vertex -5.65785258018632 -4.92328185064384 1.0
vertex -5.5 0.0 1.0
endloop
endfacet
facet normal 0.0 0.0 1.0
outer loop
vertex -6.21988509177178 4.190826821184 1.0
vertex -5.5 0.0 1.0
vertex -4.92328185064384 5.65785258018632 1.0
endloop
endfacet
facet normal 0.0 0.0 1.0
outer loop
vertex -4.92328185064384 5.65785258018632 1.0
vertex -5.5 0.0 1.0
vertex -5.31259204458988 1.42350474806387 1.0
endloop
endfacet
facet normal 0.0 0.0 1.0
outer loop
vertex -4.92328185064384 5.65785258018632 1.0
vertex -5.31259204458988 1.42350474806387 1.0
vertex -4.76313972081441 2.75 1.0
endloop
endfacet
facet normal 0.0 0.0 1.0
outer loop
vertex -4.92328185064384 5.65785258018632 1.0
vertex -4.76313972081441 2.75 1.0
vertex -3.29116508750247 6.73930503589241 1.0
endloop
endfacet
facet normal 0.0 0.0 1.0
outer loop
vertex -3.29116508750247 6.73930503589241 1.0
vertex -4.76313972081441 2.75 1.0
vertex -3.88908729652601 3.88908729652601 1.0
endloop
endfacet
facet normal 0.0 0.0 1.0
outer loop
vertex -3.29116508750247 6.73930503589241 1.0
vertex -3.88908729652601 3.88908729652601 1.0
vertex -2.75 4.76313972081441 1.0
endloop
endfacet
facet normal 0.0 0.0 1.0
outer loop
vertex -3.29116508750247 6.73930503589241 1.0
vertex -2.75 4.76313972081441 1.0
vertex -1.43476086255527 7.3614849906306 1.0
endloop
endfacet
facet normal 0.0 0.0 1.0
outer loop
vertex -1.43476086255527 7.3614849906306 1.0
vertex -2.75 4.76313972081441 1.0
vertex -1.42350474806386 5.31259204458988 1.0
endloop
endfacet
facet normal 0.0 0.0 1.0
outer loop
vertex -1.43476086255527 7.3614849906306 1.0
vertex -1.42350474806386 5.31259204458988 1.0
vertex 0.519419944120633 7.48199190868646 1.0
endloop
endfacet
facet normal 0.0 0.0 1.0
outer loop
vertex 0.519419944120633 7.48199190868646 1.0
vertex -1.42350474806386 5.31259204458988 1.0
vertex 0.0 5.5 1.0
endloop
endfacet
facet normal 0.0 0.0 1.0
outer loop
vertex 0.519419944120633 7.48199190868646 1.0
vertex 0.0 5.5 1.0
vertex 1.42350474806387 5.31259204458987 1.0
endloop
endfacet
facet normal 0.0 0.0 1.0
outer loop
vertex 0.519419944120633 7.48199190868646 1.0
vertex 1.42350474806387 5.31259204458987 1.0
vertex 2.43820313998676 7.09261344274159 1.0
endloop
endfacet
facet normal 0.0 0.0 1.0
outer loop
vertex 2.43820313998676 7.09261344274159 1.0
vertex 1.42350474806387 5.31259204458987 1.0
vertex 2.75 4.76313972081441 1.0
endloop
endfacet
facet normal 0.0 0.0 1.0
outer loop
vertex 2.43820313998676 7.09261344274159 1.0
vertex 2.75 4.76313972081441 1.0
vertex 4.19082682118399 6.21988509177178 1.0
endloop
endfacet
facet normal 0.0 0.0 1.0
outer loop
vertex 4.19082682118399 6.21988509177178 1.0
vertex 2.75 4.76313972081441 1.0
vertex 3.88908729652601 3.88908729652601 1.0
endloop
endfacet
facet normal 0.0 0.0 1.0
outer loop
vertex 4.19082682118399 6.21988509177178 1.0
vertex 3.88908729652601 3.88908729652601 1.0
vertex 4.76313972081441 2.75 1.0
endloop
endfacet
facet normal 0.0 0.0 1.0
outer loop
vertex 4.19082682118399 6.21988509177178 1.0
vertex 4.76313972081441 2.75 1.0
vertex 5.65785258018632 4.92328185064384 1.0
endloop
endfacet
facet normal 0.0 0.0 1.0
outer loop
vertex 5.65785258018632 4.92328185064384 1.0
vertex 4.76313972081441 2.75 1.0
vertex 5.31259204458988 1.42350474806386 1.0
endloop
endfacet
facet normal 0.0 0.0 1.0
outer loop
vertex 5.65785258018632 4.92328185064384 1.0
vertex 5.31259204458988 1.42350474806386 1.0
vertex 5.5 0.0 1.0
endloop
endfacet
facet normal -0.438822011666995 0.898574004785656 0.0
outer loop
vertex -3.29116508750247 6.73930503589241 1.0
vertex -1.43476086255527 7.3614849906306 0.0
vertex -3.29116508750247 6.73930503589241 0.0
endloop
endfacet
facet normal -0.191301448340703 0.981531332084081 0.0
outer loop
vertex -1.43476086255527 7.3614849906306 0.0
vertex -3.29116508750247 6.73930503589241 1.0
vertex -1.43476086255527 7.3614849906306 1.0
endloop
endfacet
facet normal 0.438822011666995 -0.898574004785656 0.0
outer loop
vertex 3.29116508750247 -6.73930503589241 1.0
vertex 1.43476086255527 -7.3614849906306 0.0
vertex 3.29116508750247 -6.73930503589241 0.0
endloop
endfacet
facet normal 0.191301448340702 -0.981531332084081 0.0
outer loop
vertex 1.43476086255527 -7.3614849906306 0.0
vertex 3.29116508750247 -6.73930503589241 1.0
vertex 1.43476086255527 -7.3614849906306 1.0
endloop
endfacet
facet normal 0.191301448340702 -0.981531332084081 0.0
outer loop
vertex 1.43476086255527 -7.3614849906306 1.0
vertex -0.519419944120637 -7.48199190868646 0.0
vertex 1.43476086255527 -7.3614849906306 0.0
endloop
endfacet
facet normal -0.0692559925494184 -0.997598921158195 0.0
outer loop
vertex -0.519419944120637 -7.48199190868646 0.0
vertex 1.43476086255527 -7.3614849906306 1.0
vertex -0.519419944120637 -7.48199190868646 1.0
endloop
endfacet
facet normal -0.0692559925494184 -0.997598921158195 0.0
outer loop
vertex -0.519419944120637 -7.48199190868646 1.0
vertex -2.43820313998676 -7.09261344274159 0.0
vertex -0.519419944120637 -7.48199190868646 0.0
endloop
endfacet
facet normal -0.325093751998235 -0.945681792365545 0.0
outer loop
vertex -2.43820313998676 -7.09261344274159 0.0
vertex -0.519419944120637 -7.48199190868646 1.0
vertex -2.43820313998676 -7.09261344274159 1.0
endloop
endfacet
facet normal 0.558776909491199 0.829318012236238 0.0
outer loop
vertex 4.19082682118399 6.21988509177178 1.0
vertex 5.65785258018632 4.92328185064384 0.0
vertex 4.19082682118399 6.21988509177178 0.0
endloop
endfacet
facet normal 0.754380344024842 0.656437580085846 0.0
outer loop
vertex 5.65785258018632 4.92328185064384 0.0
vertex 4.19082682118399 6.21988509177178 1.0
vertex 5.65785258018632 4.92328185064384 1.0
endloop
endfacet
facet normal 0.981531332084081 0.191301448340703 0.0
outer loop
vertex 7.3614849906306 1.43476086255527 0.0
vertex 7.48199190868646 -0.519419944120634 1.0
vertex 7.48199190868646 -0.519419944120634 0.0
endloop
endfacet
facet normal 0.997598921158195 -0.0692559925494176 0.0
outer loop
vertex 7.48199190868646 -0.519419944120634 1.0
vertex 7.3614849906306 1.43476086255527 0.0
vertex 7.3614849906306 1.43476086255527 1.0
endloop
endfacet
facet normal -0.325093751998235 -0.945681792365545 0.0
outer loop
vertex -2.43820313998676 -7.09261344274159 1.0
vertex -4.190826821184 -6.21988509177178 0.0
vertex -2.43820313998676 -7.09261344274159 0.0
endloop
endfacet
facet normal -0.5587769094912 -0.829318012236237 0.0
outer loop
vertex -4.190826821184 -6.21988509177178 0.0
vertex -2.43820313998676 -7.09261344274159 1.0
vertex -4.190826821184 -6.21988509177178 1.0
endloop
endfacet
facet normal 0.829318012236237 -0.5587769094912 0.0
outer loop
vertex 6.21988509177178 -4.190826821184 0.0
vertex 4.92328185064384 -5.65785258018632 1.0
vertex 4.92328185064384 -5.65785258018632 0.0
endloop
endfacet
facet normal 0.656437580085845 -0.754380344024843 0.0
outer loop
vertex 4.92328185064384 -5.65785258018632 1.0
vertex 6.21988509177178 -4.190826821184 0.0
vertex 6.21988509177178 -4.190826821184 1.0
endloop
endfacet
facet normal -0.5587769094912 -0.829318012236237 0.0
outer loop
vertex -4.190826821184 -6.21988509177178 1.0
vertex -5.65785258018632 -4.92328185064384 0.0
vertex -4.190826821184 -6.21988509177178 0.0
endloop
endfacet
facet normal -0.754380344024843 -0.656437580085845 0.0
outer loop
vertex -5.65785258018632 -4.92328185064384 0.0
vertex -4.190826821184 -6.21988509177178 1.0
vertex -5.65785258018632 -4.92328185064384 1.0
endloop
endfacet
facet normal -0.898574004785656 -0.438822011666996 0.0
outer loop
vertex -6.73930503589242 -3.29116508750247 1.0
vertex -5.65785258018632 -4.92328185064384 0.0
vertex -5.65785258018632 -4.92328185064384 1.0
endloop
endfacet
facet normal -0.754380344024843 -0.656437580085845 0.0
outer loop
vertex -5.65785258018632 -4.92328185064384 0.0
vertex -6.73930503589242 -3.29116508750247 1.0
vertex -6.73930503589242 -3.29116508750247 0.0
endloop
endfacet
facet normal 0.656437580085845 -0.754380344024843 0.0
outer loop
vertex 4.92328185064384 -5.65785258018632 1.0
vertex 3.29116508750247 -6.73930503589241 0.0
vertex 4.92328185064384 -5.65785258018632 0.0
endloop
endfacet
facet normal 0.438822011666995 -0.898574004785656 0.0
outer loop
vertex 3.29116508750247 -6.73930503589241 0.0
vertex 4.92328185064384 -5.65785258018632 1.0
vertex 3.29116508750247 -6.73930503589241 1.0
endloop
endfacet
facet normal 0.325093751998235 0.945681792365545 0.0
outer loop
vertex 2.43820313998676 7.09261344274159 1.0
vertex 4.19082682118399 6.21988509177178 0.0
vertex 2.43820313998676 7.09261344274159 0.0
endloop
endfacet
facet normal 0.558776909491199 0.829318012236238 0.0
outer loop
vertex 4.19082682118399 6.21988509177178 0.0
vertex 2.43820313998676 7.09261344274159 1.0
vertex 4.19082682118399 6.21988509177178 1.0
endloop
endfacet
facet normal -0.829318012236237 0.5587769094912 0.0
outer loop
vertex -6.21988509177178 4.190826821184 1.0
vertex -7.09261344274159 2.43820313998676 0.0
vertex -7.09261344274159 2.43820313998676 1.0
endloop
endfacet
facet normal -0.945681792365545 0.325093751998235 0.0
outer loop
vertex -7.09261344274159 2.43820313998676 0.0
vertex -6.21988509177178 4.190826821184 1.0
vertex -6.21988509177178 4.190826821184 0.0
endloop
endfacet
facet normal -0.656437580085845 0.754380344024842 0.0
outer loop
vertex -4.92328185064384 5.65785258018632 1.0
vertex -6.21988509177178 4.190826821184 0.0
vertex -6.21988509177178 4.190826821184 1.0
endloop
endfacet
facet normal -0.829318012236237 0.5587769094912 0.0
outer loop
vertex -6.21988509177178 4.190826821184 0.0
vertex -4.92328185064384 5.65785258018632 1.0
vertex -4.92328185064384 5.65785258018632 0.0
endloop
endfacet
facet normal -0.656437580085845 0.754380344024842 0.0
outer loop
vertex -4.92328185064384 5.65785258018632 1.0
vertex -3.29116508750247 6.73930503589241 0.0
vertex -4.92328185064384 5.65785258018632 0.0
endloop
endfacet
facet normal -0.438822011666995 0.898574004785656 0.0
outer loop
vertex -3.29116508750247 6.73930503589241 0.0
vertex -4.92328185064384 5.65785258018632 1.0
vertex -3.29116508750247 6.73930503589241 1.0
endloop
endfacet
endsolid model
