solid Quadro_completa
facet normal -0.206083090969482 0.978534336996581 0.000557615571042504
outer loop
vertex 152.842908434823 324.084376295819 7.01794919243131
vertex 153.576833828887 324.425344233715 6.01794919243131
vertex 152.842908434823 324.084376295819 6.01794919243131
endloop
endfacet
facet normal -0.591530635641834 0.806282379190532 0.000481771754162459
outer loop
vertex 153.576833828887 324.425344233715 7.01794919243131
vertex 153.576833828887 324.425344233715 6.01794919243131
vertex 152.842908434823 324.084376295819 7.01794919243131
endloop
endfacet
facet normal 0.617509910020576 -0.786562901261783 0.000559808026978113
outer loop
vertex 150.252999818246 329.659093126211 7.01794919243131
vertex 150.252999818246 329.659093126211 6.01794919243131
vertex 150.98692521231 330.000061064107 6.01794919243131
endloop
endfacet
facet normal 0.0 0.0 1.0
outer loop
vertex 142.254236203341 313.666073870864 8.01794919243131
vertex 140.425162019149 326.556899677271 8.01794919243131
vertex 139.121414886316 316.622223085839 8.01794919243131
endloop
endfacet
facet normal 0.0 0.0 1.0
outer loop
vertex 140.425162019149 326.556899677271 8.01794919243131
vertex 142.254236203341 313.666073870864 8.01794919243131
vertex 140.942275721098 323.599669154333 8.01794919243131
endloop
endfacet
facet normal 0.0 0.0 1.0
outer loop
vertex 140.942275721098 323.599669154333 8.01794919243131
vertex 142.254236203341 313.666073870864 8.01794919243131
vertex 142.207156781033 320.877042692484 8.01794919243131
endloop
endfacet
facet normal 0.0 0.0 1.0
outer loop
vertex 142.207156781033 320.877042692484 8.01794919243131
vertex 142.254236203341 313.666073870864 8.01794919243131
vertex 144.133605645034 318.574562785747 8.01794919243131
endloop
endfacet
facet normal 0.0 0.0 1.0
outer loop
vertex 144.133605645034 318.574562785747 8.01794919243131
vertex 142.254236203341 313.666073870864 8.01794919243131
vertex 146.045416939604 311.621486819504 8.01794919243131
endloop
endfacet
facet normal 0.0 0.0 1.0
outer loop
vertex 144.133605645034 318.574562785747 8.01794919243131
vertex 146.045416939604 311.621486819504 8.01794919243131
vertex 146.590338006628 316.849139634738 8.01794919243131
endloop
endfacet
facet normal 0.0 0.0 1.0
outer loop
vertex 146.590338006628 316.849139634738 8.01794919243131
vertex 146.045416939604 311.621486819504 8.01794919243131
vertex 150.236594393153 310.627797160471 8.01794919243131
endloop
endfacet
facet normal 0.0 0.0 1.0
outer loop
vertex 146.590338006628 316.849139634738 8.01794919243131
vertex 150.236594393153 310.627797160471 8.01794919243131
vertex 149.409931615314 315.818357975801 8.01794919243131
endloop
endfacet
facet normal 0.0 0.0 1.0
outer loop
vertex 149.409931615314 315.818357975801 8.01794919243131
vertex 150.236594393153 310.627797160471 8.01794919243131
vertex 152.400235826258 315.552463875546 8.01794919243131
endloop
endfacet
facet normal 0.0 0.0 1.0
outer loop
vertex 152.400235826258 315.552463875546 8.01794919243131
vertex 150.236594393153 310.627797160471 8.01794919243131
vertex 154.542146746775 310.752723201876 8.01794919243131
endloop
endfacet
facet normal 0.0 0.0 1.0
outer loop
vertex 152.400235826258 315.552463875546 8.01794919243131
vertex 154.542146746775 310.752723201876 8.01794919243131
vertex 155.357466349197 316.069577577494 8.01794919243131
endloop
endfacet
facet normal 0.0 0.0 1.0
outer loop
vertex 155.357466349197 316.069577577494 8.01794919243131
vertex 154.542146746775 310.752723201876 8.01794919243131
vertex 158.668657722833 311.98775144045 8.01794919243131
endloop
endfacet
facet normal 0.0 0.0 1.0
outer loop
vertex 155.357466349197 316.069577577494 8.01794919243131
vertex 158.668657722833 311.98775144045 8.01794919243131
vertex 158.080092811045 317.334458637429 8.01794919243131
endloop
endfacet
facet normal 0.0 0.0 1.0
outer loop
vertex 158.080092811045 317.334458637429 8.01794919243131
vertex 158.668657722833 311.98775144045 8.01794919243131
vertex 160.382572717782 319.260907501431 8.01794919243131
endloop
endfacet
facet normal 0.0 0.0 1.0
outer loop
vertex 160.382572717782 319.260907501431 8.01794919243131
vertex 158.668657722833 311.98775144045 8.01794919243131
vertex 162.334912417691 314.248716742712 8.01794919243131
endloop
endfacet
facet normal 0.0 0.0 1.0
outer loop
vertex 160.382572717782 319.260907501431 8.01794919243131
vertex 162.334912417691 314.248716742712 8.01794919243131
vertex 162.107995868792 321.717639863025 8.01794919243131
endloop
endfacet
facet normal 0.0 0.0 1.0
outer loop
vertex 162.107995868792 321.717639863025 8.01794919243131
vertex 162.334912417691 314.248716742712 8.01794919243131
vertex 163.138777527729 324.53723347171 8.01794919243131
endloop
endfacet
facet normal 0.0 0.0 1.0
outer loop
vertex 163.138777527729 324.53723347171 8.01794919243131
vertex 162.334912417691 314.248716742712 8.01794919243131
vertex 165.291061632666 317.381538059737 8.01794919243131
endloop
endfacet
facet normal 0.0 0.0 1.0
outer loop
vertex 163.138777527729 324.53723347171 8.01794919243131
vertex 165.291061632666 317.381538059737 8.01794919243131
vertex 163.404671627984 327.527537682655 8.01794919243131
endloop
endfacet
facet normal 0.0 0.0 1.0
outer loop
vertex 163.404671627984 327.527537682655 8.01794919243131
vertex 165.291061632666 317.381538059737 8.01794919243131
vertex 164.708418760817 337.462214274087 8.01794919243131
endloop
endfacet
facet normal 0.0 0.0 1.0
outer loop
vertex 164.708418760817 337.462214274087 8.01794919243131
vertex 165.291061632666 317.381538059737 8.01794919243131
vertex 166.96938406308 333.79595957923 8.01794919243131
endloop
endfacet
facet normal 0.0 0.0 1.0
outer loop
vertex 166.96938406308 333.79595957923 8.01794919243131
vertex 165.291061632666 317.381538059737 8.01794919243131
vertex 167.335648684025 321.172718796001 8.01794919243131
endloop
endfacet
facet normal 0.0 0.0 1.0
outer loop
vertex 166.96938406308 333.79595957923 8.01794919243131
vertex 167.335648684025 321.172718796001 8.01794919243131
vertex 168.204412301653 329.669448603171 8.01794919243131
endloop
endfacet
facet normal 0.0 0.0 1.0
outer loop
vertex 168.204412301653 329.669448603171 8.01794919243131
vertex 167.335648684025 321.172718796001 8.01794919243131
vertex 168.329338343059 325.363896249549 8.01794919243131
endloop
endfacet
facet normal 0.0 0.0 1.0
outer loop
vertex 135.62542134548 324.414988756755 8.01794919243131
vertex 136.494184963108 332.911718563925 8.01794919243131
vertex 135.500495304074 328.720541110377 8.01794919243131
endloop
endfacet
facet normal 0.0 0.0 1.0
outer loop
vertex 136.494184963108 332.911718563925 8.01794919243131
vertex 135.62542134548 324.414988756755 8.01794919243131
vertex 136.860449584053 320.288477780696 8.01794919243131
endloop
endfacet
facet normal 0.0 0.0 1.0
outer loop
vertex 136.494184963108 332.911718563925 8.01794919243131
vertex 136.860449584053 320.288477780696 8.01794919243131
vertex 138.538772014467 336.702899300189 8.01794919243131
endloop
endfacet
facet normal 0.0 0.0 1.0
outer loop
vertex 138.538772014467 336.702899300189 8.01794919243131
vertex 136.860449584053 320.288477780696 8.01794919243131
vertex 139.121414886316 316.622223085839 8.01794919243131
endloop
endfacet
facet normal 0.0 0.0 1.0
outer loop
vertex 138.538772014467 336.702899300189 8.01794919243131
vertex 139.121414886316 316.622223085839 8.01794919243131
vertex 141.494921229442 339.835720617213 8.01794919243131
endloop
endfacet
facet normal 0.0 0.0 1.0
outer loop
vertex 141.494921229442 339.835720617213 8.01794919243131
vertex 139.121414886316 316.622223085839 8.01794919243131
vertex 140.425162019149 326.556899677271 8.01794919243131
endloop
endfacet
facet normal 0.0 0.0 1.0
outer loop
vertex 141.494921229442 339.835720617213 8.01794919243131
vertex 140.425162019149 326.556899677271 8.01794919243131
vertex 140.691056119404 329.547203888216 8.01794919243131
endloop
endfacet
facet normal 0.0 0.0 1.0
outer loop
vertex 141.494921229442 339.835720617213 8.01794919243131
vertex 140.691056119404 329.547203888216 8.01794919243131
vertex 141.721837778341 332.366797496901 8.01794919243131
endloop
endfacet
facet normal 0.0 0.0 1.0
outer loop
vertex 141.494921229442 339.835720617213 8.01794919243131
vertex 141.721837778341 332.366797496901 8.01794919243131
vertex 145.1611759243 342.096685919476 8.01794919243131
endloop
endfacet
facet normal 0.0 0.0 1.0
outer loop
vertex 145.1611759243 342.096685919476 8.01794919243131
vertex 141.721837778341 332.366797496901 8.01794919243131
vertex 143.44726092935 334.823529858495 8.01794919243131
endloop
endfacet
facet normal 0.0 0.0 1.0
outer loop
vertex 145.1611759243 342.096685919476 8.01794919243131
vertex 143.44726092935 334.823529858495 8.01794919243131
vertex 145.749740836088 336.749978722497 8.01794919243131
endloop
endfacet
facet normal 0.0 0.0 1.0
outer loop
vertex 145.1611759243 342.096685919476 8.01794919243131
vertex 145.749740836088 336.749978722497 8.01794919243131
vertex 149.287686900358 343.331714158049 8.01794919243131
endloop
endfacet
facet normal 0.0 0.0 1.0
outer loop
vertex 149.287686900358 343.331714158049 8.01794919243131
vertex 145.749740836088 336.749978722497 8.01794919243131
vertex 148.472367297936 338.014859782432 8.01794919243131
endloop
endfacet
facet normal 0.0 0.0 1.0
outer loop
vertex 149.287686900358 343.331714158049 8.01794919243131
vertex 148.472367297936 338.014859782432 8.01794919243131
vertex 151.429597820875 338.53197348438 8.01794919243131
endloop
endfacet
facet normal 0.0 0.0 1.0
outer loop
vertex 149.287686900358 343.331714158049 8.01794919243131
vertex 151.429597820875 338.53197348438 8.01794919243131
vertex 153.59323925398 343.456640199455 8.01794919243131
endloop
endfacet
facet normal 0.0 0.0 1.0
outer loop
vertex 153.59323925398 343.456640199455 8.01794919243131
vertex 151.429597820875 338.53197348438 8.01794919243131
vertex 154.419902031819 338.266079384125 8.01794919243131
endloop
endfacet
facet normal 0.0 0.0 1.0
outer loop
vertex 153.59323925398 343.456640199455 8.01794919243131
vertex 154.419902031819 338.266079384125 8.01794919243131
vertex 157.784416707529 342.462950540422 8.01794919243131
endloop
endfacet
facet normal 0.0 0.0 1.0
outer loop
vertex 157.784416707529 342.462950540422 8.01794919243131
vertex 154.419902031819 338.266079384125 8.01794919243131
vertex 157.239495640505 337.235297725188 8.01794919243131
endloop
endfacet
facet normal 0.0 0.0 1.0
outer loop
vertex 157.784416707529 342.462950540422 8.01794919243131
vertex 157.239495640505 337.235297725188 8.01794919243131
vertex 159.696228002099 335.509874574179 8.01794919243131
endloop
endfacet
facet normal 0.0 0.0 1.0
outer loop
vertex 157.784416707529 342.462950540422 8.01794919243131
vertex 159.696228002099 335.509874574179 8.01794919243131
vertex 161.575597443792 340.418363489062 8.01794919243131
endloop
endfacet
facet normal 0.0 0.0 1.0
outer loop
vertex 161.575597443792 340.418363489062 8.01794919243131
vertex 159.696228002099 335.509874574179 8.01794919243131
vertex 161.6226768661 333.207394667442 8.01794919243131
endloop
endfacet
facet normal 0.0 0.0 1.0
outer loop
vertex 161.575597443792 340.418363489062 8.01794919243131
vertex 161.6226768661 333.207394667442 8.01794919243131
vertex 164.708418760817 337.462214274087 8.01794919243131
endloop
endfacet
facet normal 0.0 0.0 1.0
outer loop
vertex 164.708418760817 337.462214274087 8.01794919243131
vertex 161.6226768661 333.207394667442 8.01794919243131
vertex 162.887557926035 330.484768205593 8.01794919243131
endloop
endfacet
facet normal 0.0 0.0 1.0
outer loop
vertex 164.708418760817 337.462214274087 8.01794919243131
vertex 162.887557926035 330.484768205593 8.01794919243131
vertex 163.404671627984 327.527537682655 8.01794919243131
endloop
endfacet
facet normal 0.0 0.0 -1.0
outer loop
vertex 136.494184963108 332.911718563925 6.01794919243131
vertex 135.62542134548 324.414988756755 6.01794919243131
vertex 135.500495304074 328.720541110377 6.01794919243131
endloop
endfacet
facet normal 0.0 0.0 -1.0
outer loop
vertex 135.62542134548 324.414988756755 6.01794919243131
vertex 136.494184963108 332.911718563925 6.01794919243131
vertex 136.860449584053 320.288477780696 6.01794919243131
endloop
endfacet
facet normal 0.0 0.0 -1.0
outer loop
vertex 136.860449584053 320.288477780696 6.01794919243131
vertex 136.494184963108 332.911718563925 6.01794919243131
vertex 138.538772014467 336.702899300189 6.01794919243131
endloop
endfacet
facet normal 0.0 0.0 -1.0
outer loop
vertex 136.860449584053 320.288477780696 6.01794919243131
vertex 138.538772014467 336.702899300189 6.01794919243131
vertex 139.121414886316 316.622223085839 6.01794919243131
endloop
endfacet
facet normal 0.0 0.0 -1.0
outer loop
vertex 139.121414886316 316.622223085839 6.01794919243131
vertex 138.538772014467 336.702899300189 6.01794919243131
vertex 141.494921229442 339.835720617213 6.01794919243131
endloop
endfacet
facet normal 0.0 0.0 -1.0
outer loop
vertex 139.121414886316 316.622223085839 6.01794919243131
vertex 141.494921229442 339.835720617213 6.01794919243131
vertex 142.254236203341 313.666073870864 6.01794919243131
endloop
endfacet
facet normal 0.0 0.0 -1.0
outer loop
vertex 142.254236203341 313.666073870864 6.01794919243131
vertex 141.494921229442 339.835720617213 6.01794919243131
vertex 145.1611759243 342.096685919476 6.01794919243131
endloop
endfacet
facet normal 0.0 0.0 -1.0
outer loop
vertex 142.254236203341 313.666073870864 6.01794919243131
vertex 145.1611759243 342.096685919476 6.01794919243131
vertex 146.045416939604 311.621486819504 6.01794919243131
endloop
endfacet
facet normal 0.0 0.0 -1.0
outer loop
vertex 146.045416939604 311.621486819504 6.01794919243131
vertex 145.1611759243 342.096685919476 6.01794919243131
vertex 149.287686900358 343.331714158049 6.01794919243131
endloop
endfacet
facet normal 0.0 0.0 -1.0
outer loop
vertex 146.045416939604 311.621486819504 6.01794919243131
vertex 149.287686900358 343.331714158049 6.01794919243131
vertex 148.817678571941 326.911393557498 6.01794919243131
endloop
endfacet
facet normal 0.0 0.0 -1.0
outer loop
vertex 148.817678571941 326.911393557498 6.01794919243131
vertex 149.287686900358 343.331714158049 6.01794919243131
vertex 148.889354372879 327.717475562188 6.01794919243131
endloop
endfacet
facet normal 0.0 0.0 -1.0
outer loop
vertex 148.889354372879 327.717475562188 6.01794919243131
vertex 149.287686900358 343.331714158049 6.01794919243131
vertex 149.167217254853 328.477539926268 6.01794919243131
endloop
endfacet
facet normal 0.0 0.0 -1.0
outer loop
vertex 149.167217254853 328.477539926268 6.01794919243131
vertex 149.287686900358 343.331714158049 6.01794919243131
vertex 149.632331321647 329.139789519393 6.01794919243131
endloop
endfacet
facet normal 0.0 0.0 -1.0
outer loop
vertex 149.632331321647 329.139789519393 6.01794919243131
vertex 149.287686900358 343.331714158049 6.01794919243131
vertex 153.59323925398 343.456640199455 6.01794919243131
endloop
endfacet
facet normal 0.0 0.0 -1.0
outer loop
vertex 149.632331321647 329.139789519393 6.01794919243131
vertex 153.59323925398 343.456640199455 6.01794919243131
vertex 150.252999818246 329.659093126211 6.01794919243131
endloop
endfacet
facet normal 0.0 0.0 -1.0
outer loop
vertex 150.252999818246 329.659093126211 6.01794919243131
vertex 153.59323925398 343.456640199455 6.01794919243131
vertex 150.98692521231 330.000061064107 6.01794919243131
endloop
endfacet
facet normal 0.0 0.0 -1.0
outer loop
vertex 150.98692521231 330.000061064107 6.01794919243131
vertex 153.59323925398 343.456640199455 6.01794919243131
vertex 151.784091701102 330.139456931588 6.01794919243131
endloop
endfacet
facet normal 0.0 0.0 -1.0
outer loop
vertex 151.784091701102 330.139456931588 6.01794919243131
vertex 153.59323925398 343.456640199455 6.01794919243131
vertex 152.590173705791 330.06778113065 6.01794919243131
endloop
endfacet
facet normal 0.0 0.0 -1.0
outer loop
vertex 152.590173705791 330.06778113065 6.01794919243131
vertex 153.59323925398 343.456640199455 6.01794919243131
vertex 153.350238069872 329.789918248676 6.01794919243131
endloop
endfacet
facet normal 0.0 0.0 -1.0
outer loop
vertex 153.350238069872 329.789918248676 6.01794919243131
vertex 153.59323925398 343.456640199455 6.01794919243131
vertex 154.012487662997 329.324804181882 6.01794919243131
endloop
endfacet
facet normal 0.0 0.0 -1.0
outer loop
vertex 154.012487662997 329.324804181882 6.01794919243131
vertex 153.59323925398 343.456640199455 6.01794919243131
vertex 157.784416707529 342.462950540422 6.01794919243131
endloop
endfacet
facet normal 0.0 0.0 -1.0
outer loop
vertex 154.012487662997 329.324804181882 6.01794919243131
vertex 157.784416707529 342.462950540422 6.01794919243131
vertex 154.531791269815 328.704135685283 6.01794919243131
endloop
endfacet
facet normal 0.0 0.0 -1.0
outer loop
vertex 154.531791269815 328.704135685283 6.01794919243131
vertex 157.784416707529 342.462950540422 6.01794919243131
vertex 154.87275920771 327.97021029122 6.01794919243131
endloop
endfacet
facet normal 0.0 0.0 -1.0
outer loop
vertex 154.87275920771 327.97021029122 6.01794919243131
vertex 157.784416707529 342.462950540422 6.01794919243131
vertex 155.012155075192 327.173043802428 6.01794919243131
endloop
endfacet
facet normal 0.0 0.0 -1.0
outer loop
vertex 148.817678571941 326.911393557498 6.01794919243131
vertex 150.236594393153 310.627797160471 6.01794919243131
vertex 146.045416939604 311.621486819504 6.01794919243131
endloop
endfacet
facet normal 0.0 0.0 -1.0
outer loop
vertex 150.236594393153 310.627797160471 6.01794919243131
vertex 148.817678571941 326.911393557498 6.01794919243131
vertex 148.957074439423 326.114227068706 6.01794919243131
endloop
endfacet
facet normal 0.0 0.0 -1.0
outer loop
vertex 150.236594393153 310.627797160471 6.01794919243131
vertex 148.957074439423 326.114227068706 6.01794919243131
vertex 149.298042377318 325.380301674643 6.01794919243131
endloop
endfacet
facet normal 0.0 0.0 -1.0
outer loop
vertex 150.236594393153 310.627797160471 6.01794919243131
vertex 149.298042377318 325.380301674643 6.01794919243131
vertex 149.817345984136 324.759633178044 6.01794919243131
endloop
endfacet
facet normal 0.0 0.0 -1.0
outer loop
vertex 150.236594393153 310.627797160471 6.01794919243131
vertex 149.817345984136 324.759633178044 6.01794919243131
vertex 150.479595577261 324.29451911125 6.01794919243131
endloop
endfacet
facet normal 0.0 0.0 -1.0
outer loop
vertex 150.236594393153 310.627797160471 6.01794919243131
vertex 150.479595577261 324.29451911125 6.01794919243131
vertex 154.542146746775 310.752723201876 6.01794919243131
endloop
endfacet
facet normal 0.0 0.0 -1.0
outer loop
vertex 154.542146746775 310.752723201876 6.01794919243131
vertex 150.479595577261 324.29451911125 6.01794919243131
vertex 151.239659941342 324.016656229276 6.01794919243131
endloop
endfacet
facet normal 0.0 0.0 -1.0
outer loop
vertex 154.542146746775 310.752723201876 6.01794919243131
vertex 151.239659941342 324.016656229276 6.01794919243131
vertex 152.045741946031 323.944980428337 6.01794919243131
endloop
endfacet
facet normal 0.0 0.0 -1.0
outer loop
vertex 154.542146746775 310.752723201876 6.01794919243131
vertex 152.045741946031 323.944980428337 6.01794919243131
vertex 152.842908434823 324.084376295819 6.01794919243131
endloop
endfacet
facet normal 0.0 0.0 -1.0
outer loop
vertex 154.542146746775 310.752723201876 6.01794919243131
vertex 152.842908434823 324.084376295819 6.01794919243131
vertex 153.576833828887 324.425344233715 6.01794919243131
endloop
endfacet
facet normal 0.0 0.0 -1.0
outer loop
vertex 154.542146746775 310.752723201876 6.01794919243131
vertex 153.576833828887 324.425344233715 6.01794919243131
vertex 154.197502325486 324.944647840533 6.01794919243131
endloop
endfacet
facet normal 0.0 0.0 -1.0
outer loop
vertex 154.542146746775 310.752723201876 6.01794919243131
vertex 154.197502325486 324.944647840533 6.01794919243131
vertex 154.662616392279 325.606897433658 6.01794919243131
endloop
endfacet
facet normal 0.0 0.0 -1.0
outer loop
vertex 154.542146746775 310.752723201876 6.01794919243131
vertex 154.662616392279 325.606897433658 6.01794919243131
vertex 158.668657722833 311.98775144045 6.01794919243131
endloop
endfacet
facet normal 0.0 0.0 -1.0
outer loop
vertex 158.668657722833 311.98775144045 6.01794919243131
vertex 154.662616392279 325.606897433658 6.01794919243131
vertex 154.940479274254 326.366961797738 6.01794919243131
endloop
endfacet
facet normal 0.0 0.0 -1.0
outer loop
vertex 158.668657722833 311.98775144045 6.01794919243131
vertex 154.940479274254 326.366961797738 6.01794919243131
vertex 155.012155075192 327.173043802428 6.01794919243131
endloop
endfacet
facet normal 0.0 0.0 -1.0
outer loop
vertex 158.668657722833 311.98775144045 6.01794919243131
vertex 155.012155075192 327.173043802428 6.01794919243131
vertex 157.784416707529 342.462950540422 6.01794919243131
endloop
endfacet
facet normal 0.0 0.0 -1.0
outer loop
vertex 158.668657722833 311.98775144045 6.01794919243131
vertex 157.784416707529 342.462950540422 6.01794919243131
vertex 161.575597443792 340.418363489062 6.01794919243131
endloop
endfacet
facet normal 0.0 0.0 -1.0
outer loop
vertex 158.668657722833 311.98775144045 6.01794919243131
vertex 161.575597443792 340.418363489062 6.01794919243131
vertex 162.334912417691 314.248716742712 6.01794919243131
endloop
endfacet
facet normal 0.0 0.0 -1.0
outer loop
vertex 162.334912417691 314.248716742712 6.01794919243131
vertex 161.575597443792 340.418363489062 6.01794919243131
vertex 164.708418760817 337.462214274087 6.01794919243131
endloop
endfacet
facet normal 0.0 0.0 -1.0
outer loop
vertex 162.334912417691 314.248716742712 6.01794919243131
vertex 164.708418760817 337.462214274087 6.01794919243131
vertex 165.291061632666 317.381538059737 6.01794919243131
endloop
endfacet
facet normal 0.0 0.0 -1.0
outer loop
vertex 165.291061632666 317.381538059737 6.01794919243131
vertex 164.708418760817 337.462214274087 6.01794919243131
vertex 166.96938406308 333.79595957923 6.01794919243131
endloop
endfacet
facet normal 0.0 0.0 -1.0
outer loop
vertex 165.291061632666 317.381538059737 6.01794919243131
vertex 166.96938406308 333.79595957923 6.01794919243131
vertex 167.335648684025 321.172718796001 6.01794919243131
endloop
endfacet
facet normal 0.0 0.0 -1.0
outer loop
vertex 167.335648684025 321.172718796001 6.01794919243131
vertex 166.96938406308 333.79595957923 6.01794919243131
vertex 168.204412301653 329.669448603171 6.01794919243131
endloop
endfacet
facet normal 0.0 0.0 -1.0
outer loop
vertex 167.335648684025 321.172718796001 6.01794919243131
vertex 168.204412301653 329.669448603171 6.01794919243131
vertex 168.329338343059 325.363896249549 6.01794919243131
endloop
endfacet
facet normal 0.421331747731598 -0.906906587446269 0.0
outer loop
vertex 150.252999818246 329.659093126211 7.01794919243131
vertex 150.98692521231 330.000061064107 6.01794919243131
vertex 150.98692521231 330.000061064107 7.01794919243131
endloop
endfacet
facet normal -0.159226055952019 0.987242150187058 0.0
outer loop
vertex 149.287686900358 343.331714158049 8.01794919243131
vertex 153.59323925398 343.456640199455 6.01794919243131
vertex 149.287686900358 343.331714158049 6.01794919243131
endloop
endfacet
facet normal 0.101716510934163 0.994813425423773 0.0
outer loop
vertex 153.59323925398 343.456640199455 6.01794919243131
vertex 149.287686900358 343.331714158049 8.01794919243131
vertex 153.59323925398 343.456640199455 8.01794919243131
endloop
endfacet
facet normal -0.101716510934168 -0.994813425423772 0.0
outer loop
vertex 150.236594393153 310.627797160471 8.01794919243131
vertex 146.045416939604 311.621486819504 6.01794919243131
vertex 150.236594393153 310.627797160471 6.01794919243131
endloop
endfacet
facet normal -0.355727265694677 -0.934589809724774 0.0
outer loop
vertex 146.045416939604 311.621486819504 6.01794919243131
vertex 150.236594393153 310.627797160471 8.01794919243131
vertex 146.045416939604 311.621486819504 8.01794919243131
endloop
endfacet
facet normal -0.631514884492383 0.775363753772752 0.0
outer loop
vertex 141.494921229442 339.835720617213 8.01794919243131
vertex 145.1611759243 342.096685919476 6.01794919243131
vertex 141.494921229442 339.835720617213 6.01794919243131
endloop
endfacet
facet normal -0.409317630258574 0.912391953909889 0.0
outer loop
vertex 145.1611759243 342.096685919476 6.01794919243131
vertex 141.494921229442 339.835720617213 8.01794919243131
vertex 145.1611759243 342.096685919476 8.01794919243131
endloop
endfacet
facet normal -0.810675442975723 0.585495795165187 0.0
outer loop
vertex 138.538772014467 336.702899300189 8.01794919243131
vertex 136.494184963108 332.911718563925 6.01794919243131
vertex 136.494184963108 332.911718563925 8.01794919243131
endloop
endfacet
facet normal -0.934589809724774 0.355727265694676 0.0
outer loop
vertex 136.494184963108 332.911718563925 6.01794919243131
vertex 138.538772014467 336.702899300189 8.01794919243131
vertex 138.538772014467 336.702899300189 6.01794919243131
endloop
endfacet
facet normal -0.585495795165196 -0.810675442975717 0.0
outer loop
vertex 142.254236203341 313.666073870864 8.01794919243131
vertex 139.121414886316 316.622223085839 6.01794919243131
vertex 142.254236203341 313.666073870864 6.01794919243131
endloop
endfacet
facet normal -0.775363753772755 -0.631514884492379 0.0
outer loop
vertex 139.121414886316 316.622223085839 6.01794919243131
vertex 142.254236203341 313.666073870864 8.01794919243131
vertex 139.121414886316 316.622223085839 8.01794919243131
endloop
endfacet
facet normal -0.409317630258574 0.912391953909889 0.0
outer loop
vertex 145.1611759243 342.096685919476 8.01794919243131
vertex 149.287686900358 343.331714158049 6.01794919243131
vertex 145.1611759243 342.096685919476 6.01794919243131
endloop
endfacet
facet normal -0.159226055952019 0.987242150187058 0.0
outer loop
vertex 149.287686900358 343.331714158049 6.01794919243131
vertex 145.1611759243 342.096685919476 8.01794919243131
vertex 149.287686900358 343.331714158049 8.01794919243131
endloop
endfacet
facet normal 0.912391953909887 0.409317630258578 0.0
outer loop
vertex 166.96938406308 333.79595957923 6.01794919243131
vertex 168.204412301653 329.669448603171 8.01794919243131
vertex 168.204412301653 329.669448603171 6.01794919243131
endloop
endfacet
facet normal 0.987242150187057 0.159226055952025 0.0
outer loop
vertex 168.204412301653 329.669448603171 8.01794919243131
vertex 166.96938406308 333.79595957923 6.01794919243131
vertex 166.96938406308 333.79595957923 8.01794919243131
endloop
endfacet
facet normal 0.775363753772755 0.631514884492379 0.0
outer loop
vertex 164.708418760817 337.462214274087 6.01794919243131
vertex 166.96938406308 333.79595957923 8.01794919243131
vertex 166.96938406308 333.79595957923 6.01794919243131
endloop
endfacet
facet normal 0.912391953909887 0.409317630258578 0.0
outer loop
vertex 166.96938406308 333.79595957923 8.01794919243131
vertex 164.708418760817 337.462214274087 6.01794919243131
vertex 164.708418760817 337.462214274087 8.01794919243131
endloop
endfacet
facet normal -0.934589809724774 0.355727265694676 0.0
outer loop
vertex 136.494184963108 332.911718563925 8.01794919243131
vertex 135.500495304074 328.720541110377 6.01794919243131
vertex 135.500495304074 328.720541110377 8.01794919243131
endloop
endfacet
facet normal -0.994813425423772 0.101716510934171 0.0
outer loop
vertex 135.500495304074 328.720541110377 6.01794919243131
vertex 136.494184963108 332.911718563925 8.01794919243131
vertex 136.494184963108 332.911718563925 6.01794919243131
endloop
endfacet
facet normal -0.987242150187057 -0.159226055952025 0.0
outer loop
vertex 135.62542134548 324.414988756755 8.01794919243131
vertex 136.860449584053 320.288477780696 6.01794919243131
vertex 136.860449584053 320.288477780696 8.01794919243131
endloop
endfacet
facet normal -0.912391953909887 -0.409317630258578 0.0
outer loop
vertex 136.860449584053 320.288477780696 6.01794919243131
vertex 135.62542134548 324.414988756755 8.01794919243131
vertex 135.62542134548 324.414988756755 6.01794919243131
endloop
endfacet
facet normal 0.355727265694675 0.934589809724775 0.0
outer loop
vertex 157.784416707529 342.462950540422 8.01794919243131
vertex 161.575597443792 340.418363489062 6.01794919243131
vertex 157.784416707529 342.462950540422 6.01794919243131
endloop
endfacet
facet normal 0.585495795165196 0.810675442975717 0.0
outer loop
vertex 161.575597443792 340.418363489062 6.01794919243131
vertex 157.784416707529 342.462950540422 8.01794919243131
vertex 161.575597443792 340.418363489062 8.01794919243131
endloop
endfacet
facet normal -0.994813425423772 0.101716510934171 0.0
outer loop
vertex 135.500495304074 328.720541110377 8.01794919243131
vertex 135.62542134548 324.414988756755 6.01794919243131
vertex 135.62542134548 324.414988756755 8.01794919243131
endloop
endfacet
facet normal -0.987242150187057 -0.159226055952025 0.0
outer loop
vertex 135.62542134548 324.414988756755 6.01794919243131
vertex 135.500495304074 328.720541110377 8.01794919243131
vertex 135.500495304074 328.720541110377 6.01794919243131
endloop
endfacet
facet normal -0.912391953909887 -0.409317630258578 0.0
outer loop
vertex 136.860449584053 320.288477780696 8.01794919243131
vertex 139.121414886316 316.622223085839 6.01794919243131
vertex 139.121414886316 316.622223085839 8.01794919243131
endloop
endfacet
facet normal -0.775363753772755 -0.631514884492379 0.0
outer loop
vertex 139.121414886316 316.622223085839 6.01794919243131
vertex 136.860449584053 320.288477780696 8.01794919243131
vertex 136.860449584053 320.288477780696 6.01794919243131
endloop
endfacet
facet normal -0.355727265694677 -0.934589809724774 0.0
outer loop
vertex 146.045416939604 311.621486819504 8.01794919243131
vertex 142.254236203341 313.666073870864 6.01794919243131
vertex 146.045416939604 311.621486819504 6.01794919243131
endloop
endfacet
facet normal -0.585495795165196 -0.810675442975717 0.0
outer loop
vertex 142.254236203341 313.666073870864 6.01794919243131
vertex 146.045416939604 311.621486819504 8.01794919243131
vertex 142.254236203341 313.666073870864 8.01794919243131
endloop
endfacet
facet normal 0.987242150187057 0.159226055952025 0.0
outer loop
vertex 168.204412301653 329.669448603171 6.01794919243131
vertex 168.329338343059 325.363896249549 8.01794919243131
vertex 168.329338343059 325.363896249549 6.01794919243131
endloop
endfacet
facet normal 0.994813425423772 -0.101716510934171 0.0
outer loop
vertex 168.329338343059 325.363896249549 8.01794919243131
vertex 168.204412301653 329.669448603171 6.01794919243131
vertex 168.204412301653 329.669448603171 8.01794919243131
endloop
endfacet
facet normal 0.585495795165196 0.810675442975717 0.0
outer loop
vertex 161.575597443792 340.418363489062 8.01794919243131
vertex 164.708418760817 337.462214274087 6.01794919243131
vertex 161.575597443792 340.418363489062 6.01794919243131
endloop
endfacet
facet normal 0.775363753772755 0.631514884492379 0.0
outer loop
vertex 164.708418760817 337.462214274087 6.01794919243131
vertex 161.575597443792 340.418363489062 8.01794919243131
vertex 164.708418760817 337.462214274087 8.01794919243131
endloop
endfacet
facet normal 0.101716510934163 0.994813425423773 0.0
outer loop
vertex 153.59323925398 343.456640199455 8.01794919243131
vertex 157.784416707529 342.462950540422 6.01794919243131
vertex 153.59323925398 343.456640199455 6.01794919243131
endloop
endfacet
facet normal 0.355727265694675 0.934589809724775 0.0
outer loop
vertex 157.784416707529 342.462950540422 6.01794919243131
vertex 153.59323925398 343.456640199455 8.01794919243131
vertex 157.784416707529 342.462950540422 8.01794919243131
endloop
endfacet
facet normal -0.631514884492383 0.775363753772752 0.0
outer loop
vertex 141.494921229442 339.835720617213 8.01794919243131
vertex 138.538772014467 336.702899300189 6.01794919243131
vertex 138.538772014467 336.702899300189 8.01794919243131
endloop
endfacet
facet normal -0.810675442975723 0.585495795165187 0.0
outer loop
vertex 138.538772014467 336.702899300189 6.01794919243131
vertex 141.494921229442 339.835720617213 8.01794919243131
vertex 141.494921229442 339.835720617213 6.01794919243131
endloop
endfacet
facet normal 0.631514884492381 -0.775363753772753 0.0
outer loop
vertex 162.334912417691 314.248716742712 8.01794919243131
vertex 158.668657722833 311.98775144045 6.01794919243131
vertex 162.334912417691 314.248716742712 6.01794919243131
endloop
endfacet
facet normal 0.409317630258581 -0.912391953909886 0.0
outer loop
vertex 158.668657722833 311.98775144045 6.01794919243131
vertex 162.334912417691 314.248716742712 8.01794919243131
vertex 158.668657722833 311.98775144045 8.01794919243131
endloop
endfacet
facet normal 0.409317630258581 -0.912391953909886 0.0
outer loop
vertex 158.668657722833 311.98775144045 8.01794919243131
vertex 154.542146746775 310.752723201876 6.01794919243131
vertex 158.668657722833 311.98775144045 6.01794919243131
endloop
endfacet
facet normal 0.159226055952018 -0.987242150187058 0.0
outer loop
vertex 154.542146746775 310.752723201876 6.01794919243131
vertex 158.668657722833 311.98775144045 8.01794919243131
vertex 154.542146746775 310.752723201876 8.01794919243131
endloop
endfacet
facet normal 0.810675442975719 -0.585495795165193 0.0
outer loop
vertex 165.291061632666 317.381538059737 6.01794919243131
vertex 162.334912417691 314.248716742712 8.01794919243131
vertex 162.334912417691 314.248716742712 6.01794919243131
endloop
endfacet
facet normal 0.631514884492381 -0.775363753772753 0.0
outer loop
vertex 162.334912417691 314.248716742712 8.01794919243131
vertex 165.291061632666 317.381538059737 6.01794919243131
vertex 165.291061632666 317.381538059737 8.01794919243131
endloop
endfacet
facet normal 0.159226055952018 -0.987242150187058 0.0
outer loop
vertex 154.542146746775 310.752723201876 8.01794919243131
vertex 150.236594393153 310.627797160471 6.01794919243131
vertex 154.542146746775 310.752723201876 6.01794919243131
endloop
endfacet
facet normal -0.101716510934168 -0.994813425423772 0.0
outer loop
vertex 150.236594393153 310.627797160471 6.01794919243131
vertex 154.542146746775 310.752723201876 8.01794919243131
vertex 150.236594393153 310.627797160471 8.01794919243131
endloop
endfacet
facet normal 0.994813425423772 -0.101716510934171 0.0
outer loop
vertex 168.329338343059 325.363896249549 6.01794919243131
vertex 167.335648684025 321.172718796001 8.01794919243131
vertex 167.335648684025 321.172718796001 6.01794919243131
endloop
endfacet
facet normal 0.934589809724774 -0.355727265694676 0.0
outer loop
vertex 167.335648684025 321.172718796001 8.01794919243131
vertex 168.329338343059 325.363896249549 6.01794919243131
vertex 168.329338343059 325.363896249549 8.01794919243131
endloop
endfacet
facet normal 0.934589809724774 -0.355727265694676 0.0
outer loop
vertex 167.335648684025 321.172718796001 6.01794919243131
vertex 165.291061632666 317.381538059737 8.01794919243131
vertex 165.291061632666 317.381538059737 6.01794919243131
endloop
endfacet
facet normal 0.810675442975719 -0.585495795165193 0.0
outer loop
vertex 165.291061632666 317.381538059737 8.01794919243131
vertex 167.335648684025 321.172718796001 6.01794919243131
vertex 167.335648684025 321.172718796001 8.01794919243131
endloop
endfacet
facet normal -0.999109113427576 -0.0422016524079756 -1.44799138965005e-016
outer loop
vertex 140.425162019149 326.556899677271 11.2679491924313
vertex 140.942275721098 323.599669154333 8.01794919243131
vertex 140.942275721098 323.599669154333 11.2679491924313
endloop
endfacet
facet normal -0.954142704562489 -0.29935213266349 1.39692238769388e-015
outer loop
vertex 140.942275721098 323.599669154333 8.01794919243131
vertex 140.425162019149 326.556899677271 11.2679491924313
vertex 140.425162019149 326.556899677271 8.01794919243131
endloop
endfacet
facet normal 0.0 0.0 1.0
outer loop
vertex 140.942275721098 323.599669154333 11.2679491924313
vertex 140.691056119404 329.547203888216 11.2679491924313
vertex 140.425162019149 326.556899677271 11.2679491924313
endloop
endfacet
facet normal 0.0 0.0 1.0
outer loop
vertex 140.691056119404 329.547203888216 11.2679491924313
vertex 140.942275721098 323.599669154333 11.2679491924313
vertex 141.721837778341 332.366797496901 11.2679491924313
endloop
endfacet
facet normal 0.0 0.0 1.0
outer loop
vertex 141.721837778341 332.366797496901 11.2679491924313
vertex 140.942275721098 323.599669154333 11.2679491924313
vertex 142.207156781033 320.877042692484 11.2679491924313
endloop
endfacet
facet normal 0.0 0.0 1.0
outer loop
vertex 141.721837778341 332.366797496901 11.2679491924313
vertex 142.207156781033 320.877042692484 11.2679491924313
vertex 142.023971155915 325.569400361373 11.2679491924313
endloop
endfacet
facet normal 0.0 0.0 1.0
outer loop
vertex 141.721837778341 332.366797496901 11.2679491924313
vertex 142.023971155915 325.569400361373 11.2679491924313
vertex 141.979803525933 328.179550541468 11.2679491924313
endloop
endfacet
facet normal 0.0 0.0 1.0
outer loop
vertex 142.023971155915 325.569400361373 11.2679491924313
vertex 142.207156781033 320.877042692484 11.2679491924313
vertex 142.742190387587 323.059620315743 11.2679491924313
endloop
endfacet
facet normal 0.0 0.0 1.0
outer loop
vertex 142.742190387587 323.059620315743 11.2679491924313
vertex 142.207156781033 320.877042692484 11.2679491924313
vertex 144.133605645034 318.574562785747 11.2679491924313
endloop
endfacet
facet normal 0.0 0.0 1.0
outer loop
vertex 142.742190387587 323.059620315743 11.2679491924313
vertex 144.133605645034 318.574562785747 11.2679491924313
vertex 144.085515767224 320.82124776708 11.2679491924313
endloop
endfacet
facet normal 0.0 0.0 1.0
outer loop
vertex 144.085515767224 320.82124776708 11.2679491924313
vertex 144.133605645034 318.574562785747 11.2679491924313
vertex 145.962401890153 319.006824105489 11.2679491924313
endloop
endfacet
facet normal 0.0 0.0 1.0
outer loop
vertex 145.962401890153 319.006824105489 11.2679491924313
vertex 144.133605645034 318.574562785747 11.2679491924313
vertex 146.590338006628 316.849139634738 11.2679491924313
endloop
endfacet
facet normal 0.0 0.0 1.0
outer loop
vertex 145.962401890153 319.006824105489 11.2679491924313
vertex 146.590338006628 316.849139634738 11.2679491924313
vertex 148.244942068799 317.739999305031 11.2679491924313
endloop
endfacet
facet normal 0.0 0.0 1.0
outer loop
vertex 148.244942068799 317.739999305031 11.2679491924313
vertex 146.590338006628 316.849139634738 11.2679491924313
vertex 149.409931615314 315.818357975801 11.2679491924313
endloop
endfacet
facet normal 0.0 0.0 1.0
outer loop
vertex 148.244942068799 317.739999305031 11.2679491924313
vertex 149.409931615314 315.818357975801 11.2679491924313
vertex 150.777584962061 317.10710538233 11.2679491924313
endloop
endfacet
facet normal 0.0 0.0 1.0
outer loop
vertex 150.777584962061 317.10710538233 11.2679491924313
vertex 149.409931615314 315.818357975801 11.2679491924313
vertex 152.400235826258 315.552463875546 11.2679491924313
endloop
endfacet
facet normal 0.0 0.0 1.0
outer loop
vertex 150.777584962061 317.10710538233 11.2679491924313
vertex 152.400235826258 315.552463875546 11.2679491924313
vertex 153.387735142156 317.151273012312 11.2679491924313
endloop
endfacet
facet normal 0.0 0.0 1.0
outer loop
vertex 153.387735142156 317.151273012312 11.2679491924313
vertex 152.400235826258 315.552463875546 11.2679491924313
vertex 155.357466349197 316.069577577494 11.2679491924313
endloop
endfacet
facet normal 0.0 0.0 1.0
outer loop
vertex 153.387735142156 317.151273012312 11.2679491924313
vertex 155.357466349197 316.069577577494 11.2679491924313
vertex 155.897515187786 317.869492243984 11.2679491924313
endloop
endfacet
facet normal 0.0 0.0 1.0
outer loop
vertex 155.897515187786 317.869492243984 11.2679491924313
vertex 155.357466349197 316.069577577494 11.2679491924313
vertex 158.080092811045 317.334458637429 11.2679491924313
endloop
endfacet
facet normal 0.0 0.0 1.0
outer loop
vertex 155.897515187786 317.869492243984 11.2679491924313
vertex 158.080092811045 317.334458637429 11.2679491924313
vertex 158.13588773645 319.21281762362 11.2679491924313
endloop
endfacet
facet normal 0.0 0.0 1.0
outer loop
vertex 158.13588773645 319.21281762362 11.2679491924313
vertex 158.080092811045 317.334458637429 11.2679491924313
vertex 160.382572717782 319.260907501431 11.2679491924313
endloop
endfacet
facet normal 0.0 0.0 1.0
outer loop
vertex 158.13588773645 319.21281762362 11.2679491924313
vertex 160.382572717782 319.260907501431 11.2679491924313
vertex 159.950311398041 321.08970374655 11.2679491924313
endloop
endfacet
facet normal 0.0 0.0 1.0
outer loop
vertex 159.950311398041 321.08970374655 11.2679491924313
vertex 160.382572717782 319.260907501431 11.2679491924313
vertex 161.217136198499 323.372243925195 11.2679491924313
endloop
endfacet
facet normal 0.0 0.0 1.0
outer loop
vertex 161.217136198499 323.372243925195 11.2679491924313
vertex 160.382572717782 319.260907501431 11.2679491924313
vertex 162.107995868792 321.717639863025 11.2679491924313
endloop
endfacet
facet normal 0.0 0.0 1.0
outer loop
vertex 161.217136198499 323.372243925195 11.2679491924313
vertex 162.107995868792 321.717639863025 11.2679491924313
vertex 161.8500301212 325.904886818458 11.2679491924313
endloop
endfacet
facet normal 0.0 0.0 1.0
outer loop
vertex 141.979803525933 328.179550541468 11.2679491924313
vertex 143.44726092935 334.823529858495 11.2679491924313
vertex 141.721837778341 332.366797496901 11.2679491924313
endloop
endfacet
facet normal 0.0 0.0 1.0
outer loop
vertex 143.44726092935 334.823529858495 11.2679491924313
vertex 141.979803525933 328.179550541468 11.2679491924313
vertex 142.612697448634 330.712193434731 11.2679491924313
endloop
endfacet
facet normal 0.0 0.0 1.0
outer loop
vertex 143.44726092935 334.823529858495 11.2679491924313
vertex 142.612697448634 330.712193434731 11.2679491924313
vertex 143.879522249092 332.994733613376 11.2679491924313
endloop
endfacet
facet normal 0.0 0.0 1.0
outer loop
vertex 143.44726092935 334.823529858495 11.2679491924313
vertex 143.879522249092 332.994733613376 11.2679491924313
vertex 145.749740836088 336.749978722497 11.2679491924313
endloop
endfacet
facet normal 0.0 0.0 1.0
outer loop
vertex 145.749740836088 336.749978722497 11.2679491924313
vertex 143.879522249092 332.994733613376 11.2679491924313
vertex 145.693945910683 334.871619736306 11.2679491924313
endloop
endfacet
facet normal 0.0 0.0 1.0
outer loop
vertex 145.749740836088 336.749978722497 11.2679491924313
vertex 145.693945910683 334.871619736306 11.2679491924313
vertex 147.932318459347 336.214945115942 11.2679491924313
endloop
endfacet
facet normal 0.0 0.0 1.0
outer loop
vertex 145.749740836088 336.749978722497 11.2679491924313
vertex 147.932318459347 336.214945115942 11.2679491924313
vertex 148.472367297936 338.014859782432 11.2679491924313
endloop
endfacet
facet normal 0.0 0.0 1.0
outer loop
vertex 148.472367297936 338.014859782432 11.2679491924313
vertex 147.932318459347 336.214945115942 11.2679491924313
vertex 150.442098504977 336.933164347614 11.2679491924313
endloop
endfacet
facet normal 0.0 0.0 1.0
outer loop
vertex 148.472367297936 338.014859782432 11.2679491924313
vertex 150.442098504977 336.933164347614 11.2679491924313
vertex 151.429597820875 338.53197348438 11.2679491924313
endloop
endfacet
facet normal 0.0 0.0 1.0
outer loop
vertex 151.429597820875 338.53197348438 11.2679491924313
vertex 150.442098504977 336.933164347614 11.2679491924313
vertex 153.052248685071 336.977331977596 11.2679491924313
endloop
endfacet
facet normal 0.0 0.0 1.0
outer loop
vertex 151.429597820875 338.53197348438 11.2679491924313
vertex 153.052248685071 336.977331977596 11.2679491924313
vertex 154.419902031819 338.266079384125 11.2679491924313
endloop
endfacet
facet normal 0.0 0.0 1.0
outer loop
vertex 154.419902031819 338.266079384125 11.2679491924313
vertex 153.052248685071 336.977331977596 11.2679491924313
vertex 155.584891578334 336.344438054895 11.2679491924313
endloop
endfacet
facet normal 0.0 0.0 1.0
outer loop
vertex 154.419902031819 338.266079384125 11.2679491924313
vertex 155.584891578334 336.344438054895 11.2679491924313
vertex 157.239495640505 337.235297725188 11.2679491924313
endloop
endfacet
facet normal 0.0 0.0 1.0
outer loop
vertex 157.239495640505 337.235297725188 11.2679491924313
vertex 155.584891578334 336.344438054895 11.2679491924313
vertex 157.86743175698 335.077613254437 11.2679491924313
endloop
endfacet
facet normal 0.0 0.0 1.0
outer loop
vertex 157.239495640505 337.235297725188 11.2679491924313
vertex 157.86743175698 335.077613254437 11.2679491924313
vertex 159.696228002098 335.509874574179 11.2679491924313
endloop
endfacet
facet normal 0.0 0.0 1.0
outer loop
vertex 159.696228002098 335.509874574179 11.2679491924313
vertex 157.86743175698 335.077613254437 11.2679491924313
vertex 159.744317879909 333.263189592846 11.2679491924313
endloop
endfacet
facet normal 0.0 0.0 1.0
outer loop
vertex 159.696228002098 335.509874574179 11.2679491924313
vertex 159.744317879909 333.263189592846 11.2679491924313
vertex 161.6226768661 333.207394667442 11.2679491924313
endloop
endfacet
facet normal 0.0 0.0 1.0
outer loop
vertex 161.6226768661 333.207394667442 11.2679491924313
vertex 159.744317879909 333.263189592846 11.2679491924313
vertex 161.087643259546 331.024817044183 11.2679491924313
endloop
endfacet
facet normal 0.0 0.0 1.0
outer loop
vertex 161.6226768661 333.207394667442 11.2679491924313
vertex 161.087643259546 331.024817044183 11.2679491924313
vertex 161.805862491218 328.515036998553 11.2679491924313
endloop
endfacet
facet normal 0.0 0.0 1.0
outer loop
vertex 161.6226768661 333.207394667442 11.2679491924313
vertex 161.805862491218 328.515036998553 11.2679491924313
vertex 162.887557926035 330.484768205593 11.2679491924313
endloop
endfacet
facet normal 0.0 0.0 1.0
outer loop
vertex 162.887557926035 330.484768205593 11.2679491924313
vertex 161.805862491218 328.515036998553 11.2679491924313
vertex 161.8500301212 325.904886818458 11.2679491924313
endloop
endfacet
facet normal 0.0 0.0 1.0
outer loop
vertex 162.887557926035 330.484768205593 11.2679491924313
vertex 161.8500301212 325.904886818458 11.2679491924313
vertex 162.107995868792 321.717639863025 11.2679491924313
endloop
endfacet
facet normal 0.0 0.0 1.0
outer loop
vertex 162.887557926035 330.484768205593 11.2679491924313
vertex 162.107995868792 321.717639863025 11.2679491924313
vertex 163.138777527729 324.53723347171 11.2679491924313
endloop
endfacet
facet normal 0.0 0.0 1.0
outer loop
vertex 162.887557926035 330.484768205593 11.2679491924313
vertex 163.138777527729 324.53723347171 11.2679491924313
vertex 163.404671627984 327.527537682655 11.2679491924313
endloop
endfacet
facet normal -0.975987887318448 0.217824800717624 -3.13226672702787e-015
outer loop
vertex 140.691056119404 329.547203888216 11.2679491924313
vertex 140.425162019149 326.556899677271 8.01794919243131
vertex 140.425162019149 326.556899677271 11.2679491924313
endloop
endfacet
facet normal -0.999109113427576 -0.0422016524079756 -1.44799138965005e-016
outer loop
vertex 140.425162019149 326.556899677271 8.01794919243131
vertex 140.691056119404 329.547203888216 11.2679491924313
vertex 140.691056119404 329.547203888216 8.01794919243131
endloop
endfacet
facet normal -0.461279454103197 -0.887254674478095 -0.000638622756891025
outer loop
vertex 150.479595577261 324.29451911125 7.01794919243131
vertex 149.817345984136 324.759633178044 6.01794919243131
vertex 150.479595577261 324.29451911125 6.01794919243131
endloop
endfacet
facet normal -0.67522412999394 -0.737612339636255 -0.000640851197035014
outer loop
vertex 149.817345984136 324.759633178044 6.01794919243131
vertex 150.479595577261 324.29451911125 7.01794919243131
vertex 149.817345984136 324.759633178044 7.01794919243131
endloop
endfacet
facet normal 0.206083090969482 -0.978534336996581 -0.000557615571042504
outer loop
vertex 152.842908434823 324.084376295819 7.01794919243131
vertex 152.045741946031 323.944980428337 6.01794919243131
vertex 152.842908434823 324.084376295819 6.01794919243131
endloop
endfacet
facet normal 0.0441164840282943 -0.999026188481514 -0.000640753525432414
outer loop
vertex 152.045741946031 323.944980428337 6.01794919243131
vertex 152.842908434823 324.084376295819 7.01794919243131
vertex 152.045741946031 323.944980428337 7.01794919243131
endloop
endfacet
facet normal -0.21593938884079 -0.976406560332669 -0.000639754947804409
outer loop
vertex 151.239659941342 324.016656229276 7.01794919243131
vertex 150.479595577261 324.29451911125 6.01794919243131
vertex 151.239659941342 324.016656229276 6.01794919243131
endloop
endfacet
facet normal -0.461279637498088 -0.887254579131947 -0.000638622755915738
outer loop
vertex 150.479595577261 324.29451911125 6.01794919243131
vertex 151.239659941342 324.016656229276 7.01794919243131
vertex 150.479595577261 324.29451911125 7.01794919243131
endloop
endfacet
facet normal 0.0441166879259848 -0.999026179477475 -0.000640753526188424
outer loop
vertex 152.045741946031 323.944980428337 7.01794919243131
vertex 151.239659941342 324.016656229276 6.01794919243131
vertex 152.045741946031 323.944980428337 6.01794919243131
endloop
endfacet
facet normal -0.215939589316646 -0.976406515995959 -0.000639754947007565
outer loop
vertex 151.239659941342 324.016656229276 6.01794919243131
vertex 152.045741946031 323.944980428337 7.01794919243131
vertex 151.239659941342 324.016656229276 7.01794919243131
endloop
endfacet
facet normal -0.843141277637591 -0.537691707664505 -0.000643002705976384
outer loop
vertex 149.298042377318 325.380301674643 7.01794919243131
vertex 149.817345984136 324.759633178044 6.01794919243131
vertex 149.817345984136 324.759633178044 7.01794919243131
endloop
endfacet
facet normal -0.67522412999394 -0.737612339636255 -0.000640851197035014
outer loop
vertex 149.817345984136 324.759633178044 6.01794919243131
vertex 149.298042377318 325.380301674643 7.01794919243131
vertex 149.298042377318 325.380301674643 6.01794919243131
endloop
endfacet
facet normal 0.976406515995963 -0.215939589316627 -0.000639754947006781
outer loop
vertex 154.940479274254 326.366961797738 6.01794919243131
vertex 154.662616392279 325.606897433658 7.01794919243131
vertex 154.662616392279 325.606897433658 6.01794919243131
endloop
endfacet
facet normal 0.887254674478112 -0.461279454103165 -0.000638622756888216
outer loop
vertex 154.662616392279 325.606897433658 7.01794919243131
vertex 154.940479274254 326.366961797738 6.01794919243131
vertex 154.940479274254 326.366961797738 7.01794919243131
endloop
endfacet
facet normal -0.976406560332673 0.21593938884077 -0.000639754947803624
outer loop
vertex 148.889354372879 327.717475562188 7.01794919243131
vertex 148.817678571941 326.911393557498 6.01794919243131
vertex 148.817678571941 326.911393557498 7.01794919243131
endloop
endfacet
facet normal -0.999026188481513 -0.0441164840283065 -0.000640753525432451
outer loop
vertex 148.817678571941 326.911393557498 6.01794919243131
vertex 148.889354372879 327.717475562188 7.01794919243131
vertex 148.889354372879 327.717475562188 6.01794919243131
endloop
endfacet
facet normal 0.999026188481513 0.0441164840283065 -0.000640753525432452
outer loop
vertex 155.012155075192 327.173043802428 6.01794919243131
vertex 154.940479274254 326.366961797738 7.01794919243131
vertex 154.940479274254 326.366961797738 6.01794919243131
endloop
endfacet
facet normal 0.976406560332673 -0.21593938884077 -0.000639754947803625
outer loop
vertex 154.940479274254 326.366961797738 7.01794919243131
vertex 155.012155075192 327.173043802428 6.01794919243131
vertex 155.012155075192 327.173043802428 7.01794919243131
endloop
endfacet
facet normal 0.887254579131964 -0.461279637498056 -0.000638622755912928
outer loop
vertex 154.662616392279 325.606897433658 6.01794919243131
vertex 154.197502325486 324.944647840533 7.01794919243131
vertex 154.197502325486 324.944647840533 6.01794919243131
endloop
endfacet
facet normal 0.737612477408156 -0.675223979492399 -0.000640851192622111
outer loop
vertex 154.197502325486 324.944647840533 7.01794919243131
vertex 154.662616392279 325.606897433658 6.01794919243131
vertex 154.662616392279 325.606897433658 7.01794919243131
endloop
endfacet
facet normal -0.237431123835651 0.971404257340954 -0.000479847903337051
outer loop
vertex 150.98692521231 330.000061064107 7.01794919243131
vertex 151.784091701102 330.139456931588 6.01794919243131
vertex 150.98692521231 330.000061064107 6.01794919243131
endloop
endfacet
facet normal -0.0441164840282943 0.999026188481514 -0.000640753525432413
outer loop
vertex 151.784091701102 330.139456931588 6.01794919243131
vertex 150.98692521231 330.000061064107 7.01794919243131
vertex 151.784091701102 330.139456931588 7.01794919243131
endloop
endfacet
facet normal 0.953571488919073 0.301166073193212 -0.000641777253995274
outer loop
vertex 154.87275920771 327.97021029122 6.01794919243131
vertex 155.012155075192 327.173043802428 7.01794919243131
vertex 155.012155075192 327.173043802428 6.01794919243131
endloop
endfacet
facet normal 0.999026179477474 0.044116687925997 -0.000640753526188462
outer loop
vertex 155.012155075192 327.173043802428 7.01794919243131
vertex 154.87275920771 327.97021029122 6.01794919243131
vertex 154.87275920771 327.97021029122 7.01794919243131
endloop
endfacet
facet normal -0.737612477408156 0.675223979492399 -0.000640851192622113
outer loop
vertex 149.632331321647 329.139789519393 7.01794919243131
vertex 150.252999818246 329.659093126211 6.01794919243131
vertex 149.632331321647 329.139789519393 6.01794919243131
endloop
endfacet
facet normal -0.591530655904191 0.806282364324978 -0.000481771814495501
outer loop
vertex 150.252999818246 329.659093126211 6.01794919243131
vertex 149.632331321647 329.139789519393 7.01794919243131
vertex 150.252999818246 329.659093126211 7.01794919243131
endloop
endfacet
facet normal 0.737612477408156 -0.675223979492399 -0.000640851192622111
outer loop
vertex 154.197502325486 324.944647840533 7.01794919243131
vertex 153.576833828887 324.425344233715 6.01794919243131
vertex 154.197502325486 324.944647840533 6.01794919243131
endloop
endfacet
facet normal 0.617509921580441 -0.786562892186411 -0.000559808062011944
outer loop
vertex 153.576833828887 324.425344233715 6.01794919243131
vertex 154.197502325486 324.944647840533 7.01794919243131
vertex 153.576833828887 324.425344233715 7.01794919243131
endloop
endfacet
facet normal 0.843141385883453 0.537691537926766 -0.000643002704921964
outer loop
vertex 154.531791269815 328.704135685283 6.01794919243131
vertex 154.87275920771 327.97021029122 7.01794919243131
vertex 154.87275920771 327.97021029122 6.01794919243131
endloop
endfacet
facet normal 0.953571427832014 0.301166266610936 -0.000641777254821362
outer loop
vertex 154.87275920771 327.97021029122 7.01794919243131
vertex 154.531791269815 328.704135685283 6.01794919243131
vertex 154.531791269815 328.704135685283 7.01794919243131
endloop
endfacet
facet normal 0.675242149138477 0.737595811644236 -0.000677253077512901
outer loop
vertex 154.012487662997 329.324804181882 6.01794919243131
vertex 154.531791269815 328.704135685283 7.01794919243131
vertex 154.531791269815 328.704135685283 6.01794919243131
endloop
endfacet
facet normal 0.843141277637591 0.537691707664505 -0.000643002705976376
outer loop
vertex 154.531791269815 328.704135685283 7.01794919243131
vertex 154.012487662997 329.324804181882 6.01794919243131
vertex 154.012487662997 329.324804181882 7.01794919243131
endloop
endfacet
facet normal 0.461301123841966 0.88724338119725 -0.000675028747853237
outer loop
vertex 153.350238069872 329.789918248676 7.01794919243131
vertex 154.012487662997 329.324804181882 6.01794919243131
vertex 153.350238069872 329.789918248676 6.01794919243131
endloop
endfacet
facet normal 0.675242149138477 0.737595811644236 -0.000677253077512901
outer loop
vertex 154.012487662997 329.324804181882 6.01794919243131
vertex 153.350238069872 329.789918248676 7.01794919243131
vertex 154.012487662997 329.324804181882 7.01794919243131
endloop
endfacet
facet normal -0.0441166879259848 0.999026179477475 -0.000640753526188423
outer loop
vertex 151.784091701102 330.139456931588 7.01794919243131
vertex 152.590173705791 330.06778113065 6.01794919243131
vertex 151.784091701102 330.139456931588 6.01794919243131
endloop
endfacet
facet normal 0.215939589316646 0.976406515995959 -0.00063975494700757
outer loop
vertex 152.590173705791 330.06778113065 6.01794919243131
vertex 151.784091701102 330.139456931588 7.01794919243131
vertex 152.590173705791 330.06778113065 7.01794919243131
endloop
endfacet
facet normal -0.737612477408156 0.675223979492399 -0.000640851192622113
outer loop
vertex 149.632331321647 329.139789519393 7.01794919243131
vertex 149.167217254853 328.477539926268 6.01794919243131
vertex 149.167217254853 328.477539926268 7.01794919243131
endloop
endfacet
facet normal -0.887254579131964 0.461279637498056 -0.000638622755912934
outer loop
vertex 149.167217254853 328.477539926268 6.01794919243131
vertex 149.632331321647 329.139789519393 7.01794919243131
vertex 149.632331321647 329.139789519393 6.01794919243131
endloop
endfacet
facet normal -0.887254674478112 0.461279454103165 -0.000638622756888222
outer loop
vertex 149.167217254853 328.477539926268 7.01794919243131
vertex 148.889354372879 327.717475562188 6.01794919243131
vertex 148.889354372879 327.717475562188 7.01794919243131
endloop
endfacet
facet normal -0.976406515995963 0.215939589316627 -0.000639754947006781
outer loop
vertex 148.889354372879 327.717475562188 6.01794919243131
vertex 149.167217254853 328.477539926268 7.01794919243131
vertex 149.167217254853 328.477539926268 6.01794919243131
endloop
endfacet
facet normal 0.21593938884079 0.976406560332669 -0.000639754947804413
outer loop
vertex 152.590173705791 330.06778113065 7.01794919243131
vertex 153.350238069872 329.789918248676 6.01794919243131
vertex 152.590173705791 330.06778113065 6.01794919243131
endloop
endfacet
facet normal 0.461301315211404 0.887243281699185 -0.000675028806470236
outer loop
vertex 153.350238069872 329.789918248676 6.01794919243131
vertex 152.590173705791 330.06778113065 7.01794919243131
vertex 153.350238069872 329.789918248676 7.01794919243131
endloop
endfacet
facet normal -0.953571427832014 -0.301166266610936 -0.000641777254821368
outer loop
vertex 148.957074439423 326.114227068706 7.01794919243131
vertex 149.298042377318 325.380301674643 6.01794919243131
vertex 149.298042377318 325.380301674643 7.01794919243131
endloop
endfacet
facet normal -0.843141385883453 -0.537691537926766 -0.000643002704921972
outer loop
vertex 149.298042377318 325.380301674643 6.01794919243131
vertex 148.957074439423 326.114227068706 7.01794919243131
vertex 148.957074439423 326.114227068706 6.01794919243131
endloop
endfacet
facet normal -0.999026179477474 -0.044116687925997 -0.000640753526188462
outer loop
vertex 148.817678571941 326.911393557498 7.01794919243131
vertex 148.957074439423 326.114227068706 6.01794919243131
vertex 148.957074439423 326.114227068706 7.01794919243131
endloop
endfacet
facet normal -0.953571488919073 -0.301166073193212 -0.00064177725399528
outer loop
vertex 148.957074439423 326.114227068706 6.01794919243131
vertex 148.817678571941 326.911393557498 7.01794919243131
vertex 148.817678571941 326.911393557498 6.01794919243131
endloop
endfacet
facet normal 0.886354699584816 -0.463006853646801 2.68638897612975e-015
outer loop
vertex 162.107995868792 321.717639863025 8.01794919243131
vertex 160.382572717782 319.260907501431 11.2679491924313
vertex 160.382572717782 319.260907501431 8.01794919243131
endloop
endfacet
facet normal 0.73631790384487 -0.676635754654967 -5.12286324370704e-018
outer loop
vertex 160.382572717782 319.260907501431 11.2679491924313
vertex 162.107995868792 321.717639863025 8.01794919243131
vertex 162.107995868792 321.717639863025 11.2679491924313
endloop
endfacet
facet normal 0.73631790384487 -0.676635754654967 -5.12286324370704e-018
outer loop
vertex 160.382572717782 319.260907501431 11.2679491924313
vertex 158.080092811045 317.334458637429 8.01794919243131
vertex 160.382572717782 319.260907501431 8.01794919243131
endloop
endfacet
facet normal 0.536102259780776 -0.844153047176841 -1.14735464200958e-016
outer loop
vertex 158.080092811045 317.334458637429 8.01794919243131
vertex 160.382572717782 319.260907501431 11.2679491924313
vertex 158.080092811045 317.334458637429 11.2679491924313
endloop
endfacet
facet normal -0.29935213266349 0.954142704562488 -1.96795241503095e-015
outer loop
vertex 148.472367297936 338.014859782432 11.2679491924313
vertex 151.429597820875 338.53197348438 8.01794919243131
vertex 148.472367297936 338.014859782432 8.01794919243131
endloop
endfacet
facet normal -0.0422016524079736 0.999109113427576 -2.34602992881291e-015
outer loop
vertex 151.429597820875 338.53197348438 8.01794919243131
vertex 148.472367297936 338.014859782432 11.2679491924313
vertex 151.429597820875 338.53197348438 11.2679491924313
endloop
endfacet
facet normal -0.536102259780774 0.844153047176842 -2.70725790786957e-015
outer loop
vertex 145.749740836088 336.749978722497 11.2679491924313
vertex 148.472367297936 338.014859782432 8.01794919243131
vertex 145.749740836088 336.749978722497 8.01794919243131
endloop
endfacet
facet normal -0.299352132663486 0.95414270456249 -1.96795241503092e-015
outer loop
vertex 148.472367297936 338.014859782432 8.01794919243131
vertex 145.749740836088 336.749978722497 11.2679491924313
vertex 148.472367297936 338.014859782432 11.2679491924313
endloop
endfacet
facet normal 0.299352132663491 -0.954142704562488 -6.29353683802324e-016
outer loop
vertex 155.357466349197 316.069577577494 11.2679491924313
vertex 152.400235826258 315.552463875546 8.01794919243131
vertex 155.357466349197 316.069577577494 8.01794919243131
endloop
endfacet
facet normal 0.0422016524079872 -0.999109113427575 6.04242663475022e-016
outer loop
vertex 152.400235826258 315.552463875546 8.01794919243131
vertex 155.357466349197 316.069577577494 11.2679491924313
vertex 152.400235826258 315.552463875546 11.2679491924313
endloop
endfacet
facet normal 0.844153047176846 0.536102259780767 3.2359480840058e-015
outer loop
vertex 161.6226768661 333.207394667442 8.01794919243131
vertex 159.696228002098 335.509874574179 11.2679491924313
vertex 161.6226768661 333.207394667442 11.2679491924313
endloop
endfacet
facet normal 0.67663575465495 0.736317903844886 4.08287448902963e-015
outer loop
vertex 159.696228002098 335.509874574179 11.2679491924313
vertex 161.6226768661 333.207394667442 8.01794919243131
vertex 159.696228002099 335.509874574179 8.01794919243131
endloop
endfacet
facet normal -0.0422016524079736 0.999109113427576 -2.34602992881291e-015
outer loop
vertex 151.429597820875 338.53197348438 11.2679491924313
vertex 154.419902031819 338.266079384125 8.01794919243131
vertex 151.429597820875 338.53197348438 8.01794919243131
endloop
endfacet
facet normal 0.217824800717622 0.975987887318448 -6.6740427768731e-015
outer loop
vertex 154.419902031819 338.266079384125 8.01794919243131
vertex 151.429597820875 338.53197348438 11.2679491924313
vertex 154.419902031819 338.266079384125 11.2679491924313
endloop
endfacet
facet normal -0.954142704562488 -0.299352132663492 1.39692238769391e-015
outer loop
vertex 140.942275721098 323.599669154333 11.2679491924313
vertex 142.207156781033 320.877042692484 8.01794919243131
vertex 142.207156781033 320.877042692484 11.2679491924313
endloop
endfacet
facet normal -0.844153047176852 -0.536102259780758 4.82462438613347e-015
outer loop
vertex 142.207156781033 320.877042692484 8.01794919243131
vertex 140.942275721098 323.599669154333 11.2679491924313
vertex 140.942275721098 323.599669154333 8.01794919243131
endloop
endfacet
facet normal -0.463006853646799 -0.886354699584817 1.0252206168056e-015
outer loop
vertex 146.590338006628 316.849139634738 11.2679491924313
vertex 144.133605645034 318.574562785747 8.01794919243131
vertex 146.590338006628 316.849139634738 8.01794919243131
endloop
endfacet
facet normal -0.676635754654961 -0.736317903844876 3.71124475940641e-015
outer loop
vertex 144.133605645034 318.574562785747 8.01794919243131
vertex 146.590338006628 316.849139634738 11.2679491924313
vertex 144.133605645034 318.574562785747 11.2679491924313
endloop
endfacet
facet normal -0.84415304717685 -0.536102259780761 4.82462438613352e-015
outer loop
vertex 142.207156781033 320.877042692484 11.2679491924313
vertex 144.133605645034 318.574562785747 8.01794919243131
vertex 144.133605645034 318.574562785747 11.2679491924313
endloop
endfacet
facet normal -0.676635754654961 -0.736317903844876 3.71124475940641e-015
outer loop
vertex 144.133605645034 318.574562785747 8.01794919243131
vertex 142.207156781033 320.877042692484 11.2679491924313
vertex 142.207156781033 320.877042692484 8.01794919243131
endloop
endfacet
facet normal 0.844153047176846 0.536102259780767 3.2359480840058e-015
outer loop
vertex 161.6226768661 333.207394667442 8.01794919243131
vertex 162.887557926035 330.484768205593 11.2679491924313
vertex 162.887557926035 330.484768205593 8.01794919243131
endloop
endfacet
facet normal 0.954142704562488 0.299352132663494 -5.14726514583512e-015
outer loop
vertex 162.887557926035 330.484768205593 11.2679491924313
vertex 161.6226768661 333.207394667442 8.01794919243131
vertex 161.6226768661 333.207394667442 11.2679491924313
endloop
endfacet
facet normal 0.954142704562487 0.299352132663495 -5.1472651458351e-015
outer loop
vertex 162.887557926035 330.484768205593 8.01794919243131
vertex 163.404671627984 327.527537682655 11.2679491924313
vertex 163.404671627984 327.527537682655 8.01794919243131
endloop
endfacet
facet normal 0.999109113427575 0.0422016524079892 -1.15607186850645e-016
outer loop
vertex 163.404671627984 327.527537682655 11.2679491924313
vertex 162.887557926035 330.484768205593 8.01794919243131
vertex 162.887557926035 330.484768205593 11.2679491924313
endloop
endfacet
facet normal 0.536102259780776 -0.844153047176841 -1.14735464200958e-016
outer loop
vertex 158.080092811045 317.334458637429 11.2679491924313
vertex 155.357466349197 316.069577577494 8.01794919243131
vertex 158.080092811045 317.334458637429 8.01794919243131
endloop
endfacet
facet normal 0.299352132663496 -0.954142704562487 -6.29353683802308e-016
outer loop
vertex 155.357466349197 316.069577577494 8.01794919243131
vertex 158.080092811045 317.334458637429 11.2679491924313
vertex 155.357466349197 316.069577577494 11.2679491924313
endloop
endfacet
facet normal 0.975987887318451 -0.217824800717613 6.01851284331189e-015
outer loop
vertex 163.138777527729 324.53723347171 8.01794919243131
vertex 163.404671627984 327.527537682655 11.2679491924313
vertex 163.138777527729 324.53723347171 11.2679491924313
endloop
endfacet
facet normal 0.999109113427575 0.0422016524079892 -1.15607186850645e-016
outer loop
vertex 163.404671627984 327.527537682655 11.2679491924313
vertex 163.138777527729 324.53723347171 8.01794919243131
vertex 163.404671627984 327.527537682655 8.01794919243131
endloop
endfacet
facet normal 0.463006853646796 0.886354699584819 -5.78350521185121e-015
outer loop
vertex 157.239495640505 337.235297725188 11.2679491924313
vertex 159.696228002099 335.509874574179 8.01794919243131
vertex 157.239495640505 337.235297725188 8.01794919243131
endloop
endfacet
facet normal 0.676635754654952 0.736317903844884 4.08287448902978e-015
outer loop
vertex 159.696228002099 335.509874574179 8.01794919243131
vertex 157.239495640505 337.235297725188 11.2679491924313
vertex 159.696228002098 335.509874574179 11.2679491924313
endloop
endfacet
facet normal -0.886354699584819 0.463006853646795 -6.3046802636526e-015
outer loop
vertex 141.721837778341 332.366797496901 11.2679491924313
vertex 143.44726092935 334.823529858495 8.01794919243131
vertex 141.721837778341 332.366797496901 8.01794919243131
endloop
endfacet
facet normal -0.736317903844879 0.676635754654958 -4.3596054167887e-015
outer loop
vertex 143.44726092935 334.823529858495 8.01794919243131
vertex 141.721837778341 332.366797496901 11.2679491924313
vertex 143.44726092935 334.823529858495 11.2679491924313
endloop
endfacet
facet normal -0.886354699584819 0.463006853646795 -6.3046802636526e-015
outer loop
vertex 141.721837778341 332.366797496901 11.2679491924313
vertex 140.691056119404 329.547203888216 8.01794919243131
vertex 140.691056119404 329.547203888216 11.2679491924313
endloop
endfacet
facet normal -0.975987887318447 0.217824800717626 -3.13226672702793e-015
outer loop
vertex 140.691056119404 329.547203888216 8.01794919243131
vertex 141.721837778341 332.366797496901 11.2679491924313
vertex 141.721837778341 332.366797496901 8.01794919243131
endloop
endfacet
facet normal -0.217824800717619 -0.975987887318449 1.56586417350659e-015
outer loop
vertex 149.409931615314 315.818357975801 11.2679491924313
vertex 146.590338006628 316.849139634738 8.01794919243131
vertex 149.409931615314 315.818357975801 8.01794919243131
endloop
endfacet
facet normal -0.463006853646799 -0.886354699584817 1.0252206168056e-015
outer loop
vertex 146.590338006628 316.849139634738 8.01794919243131
vertex 149.409931615314 315.818357975801 11.2679491924313
vertex 146.590338006628 316.849139634738 11.2679491924313
endloop
endfacet
facet normal -0.736317903844874 0.676635754654962 -4.35960541678862e-015
outer loop
vertex 143.44726092935 334.823529858495 11.2679491924313
vertex 145.749740836088 336.749978722497 8.01794919243131
vertex 143.44726092935 334.823529858495 8.01794919243131
endloop
endfacet
facet normal -0.53610225978077 0.844153047176845 -2.70725790786957e-015
outer loop
vertex 145.749740836088 336.749978722497 8.01794919243131
vertex 143.44726092935 334.823529858495 11.2679491924313
vertex 145.749740836088 336.749978722497 11.2679491924313
endloop
endfacet
facet normal 0.0422016524079825 -0.999109113427575 6.0424266347508e-016
outer loop
vertex 152.400235826258 315.552463875546 11.2679491924313
vertex 149.409931615314 315.818357975801 8.01794919243131
vertex 152.400235826258 315.552463875546 8.01794919243131
endloop
endfacet
facet normal -0.217824800717614 -0.97598788731845 1.56586417350662e-015
outer loop
vertex 149.409931615314 315.818357975801 8.01794919243131
vertex 152.400235826258 315.552463875546 11.2679491924313
vertex 149.409931615314 315.818357975801 11.2679491924313
endloop
endfacet
facet normal 0.217824800717622 0.975987887318449 -6.67404277687309e-015
outer loop
vertex 154.419902031819 338.266079384125 11.2679491924313
vertex 157.239495640505 337.235297725188 8.01794919243131
vertex 154.419902031819 338.266079384125 8.01794919243131
endloop
endfacet
facet normal 0.463006853646798 0.886354699584818 -5.78350521185114e-015
outer loop
vertex 157.239495640505 337.235297725188 8.01794919243131
vertex 154.419902031819 338.266079384125 11.2679491924313
vertex 157.239495640505 337.235297725188 11.2679491924313
endloop
endfacet
facet normal 0.975987887318451 -0.217824800717613 6.01851284331189e-015
outer loop
vertex 163.138777527729 324.53723347171 8.01794919243131
vertex 162.107995868792 321.717639863025 11.2679491924313
vertex 162.107995868792 321.717639863025 8.01794919243131
endloop
endfacet
facet normal 0.886354699584816 -0.463006853646801 2.68638897612975e-015
outer loop
vertex 162.107995868792 321.717639863025 11.2679491924313
vertex 163.138777527729 324.53723347171 8.01794919243131
vertex 163.138777527729 324.53723347171 11.2679491924313
endloop
endfacet
facet normal -0.147281831858946 0.989094566765116 5.17431776729873e-015
outer loop
vertex 150.442098504977 336.933164347614 11.2679491924313
vertex 153.052248685071 336.977331977596 7.01794919243131
vertex 150.442098504977 336.933164347614 7.01794919243131
endloop
endfacet
facet normal 0.113733186150515 0.993511329763306 7.1465593773436e-015
outer loop
vertex 153.052248685071 336.977331977596 7.01794919243131
vertex 150.442098504977 336.933164347614 11.2679491924313
vertex 153.052248685071 336.977331977596 11.2679491924313
endloop
endfacet
facet normal -0.398259836421958 0.917272643597941 1.02379533061009e-014
outer loop
vertex 147.932318459347 336.214945115942 11.2679491924313
vertex 150.442098504977 336.933164347614 7.01794919243131
vertex 147.932318459347 336.214945115942 7.01794919243131
endloop
endfacet
facet normal -0.147281831858957 0.989094566765115 5.17431776729909e-015
outer loop
vertex 150.442098504977 336.933164347614 7.01794919243131
vertex 147.932318459347 336.214945115942 11.2679491924313
vertex 150.442098504977 336.933164347614 11.2679491924313
endloop
endfacet
facet normal 0.113733186150515 0.993511329763306 7.1465593773436e-015
outer loop
vertex 153.052248685071 336.977331977596 11.2679491924313
vertex 155.584891578334 336.344438054895 7.01794919243131
vertex 153.052248685071 336.977331977596 7.01794919243131
endloop
endfacet
facet normal 0.366997475476779 0.930221937493237 9.17821045095977e-015
outer loop
vertex 155.584891578334 336.344438054895 7.01794919243131
vertex 153.052248685071 336.977331977596 11.2679491924313
vertex 155.584891578334 336.344438054895 11.2679491924313
endloop
endfacet
facet normal -0.622097091288316 0.782940105634279 1.06099976583376e-014
outer loop
vertex 145.693945910683 334.871619736306 11.2679491924313
vertex 147.932318459347 336.214945115942 7.01794919243131
vertex 145.693945910683 334.871619736306 7.01794919243131
endloop
endfacet
facet normal -0.398259836421968 0.917272643597937 1.02379533061009e-014
outer loop
vertex 147.932318459347 336.214945115942 7.01794919243131
vertex 145.693945910683 334.871619736306 11.2679491924313
vertex 147.932318459347 336.214945115942 11.2679491924313
endloop
endfacet
facet normal 0.595251493341329 0.803539457447434 -4.82733358303188e-015
outer loop
vertex 157.86743175698 335.077613254437 11.2679491924313
vertex 159.744317879909 333.263189592846 7.01794919243131
vertex 157.86743175698 335.077613254437 7.01794919243131
endloop
endfacet
facet normal 0.782940105634272 0.622097091288326 -1.08164020804084e-014
outer loop
vertex 159.744317879909 333.263189592846 7.01794919243131
vertex 157.86743175698 335.077613254437 11.2679491924313
vertex 159.744317879909 333.263189592846 11.2679491924313
endloop
endfacet
facet normal 0.782940105634272 0.622097091288326 -1.08164020804084e-014
outer loop
vertex 159.744317879909 333.263189592846 7.01794919243131
vertex 161.087643259546 331.024817044183 11.2679491924313
vertex 161.087643259546 331.024817044183 7.01794919243131
endloop
endfacet
facet normal 0.917272643597935 0.398259836421971 -6.49095793382038e-015
outer loop
vertex 161.087643259546 331.024817044183 11.2679491924313
vertex 159.744317879909 333.263189592846 7.01794919243131
vertex 159.744317879909 333.263189592846 11.2679491924313
endloop
endfacet
facet normal -0.113733186150501 -0.993511329763308 -5.44946121984848e-015
outer loop
vertex 150.777584962061 317.10710538233 11.2679491924313
vertex 148.244942068799 317.739999305031 7.01794919243131
vertex 150.777584962061 317.10710538233 7.01794919243131
endloop
endfacet
facet normal -0.366997475476784 -0.930221937493235 -7.48111229346387e-015
outer loop
vertex 148.244942068799 317.739999305031 7.01794919243131
vertex 150.777584962061 317.10710538233 11.2679491924313
vertex 148.244942068799 317.739999305031 11.2679491924313
endloop
endfacet
facet normal 0.14728183185898 -0.989094566765112 1.1655319894082e-016
outer loop
vertex 153.387735142156 317.151273012312 11.2679491924313
vertex 150.777584962061 317.10710538233 7.01794919243131
vertex 153.387735142156 317.151273012312 7.01794919243131
endloop
endfacet
facet normal -0.113733186150501 -0.993511329763308 -5.44946121984849e-015
outer loop
vertex 150.777584962061 317.10710538233 7.01794919243131
vertex 153.387735142156 317.151273012312 11.2679491924313
vertex 150.777584962061 317.10710538233 11.2679491924313
endloop
endfacet
facet normal 0.398259836421982 -0.917272643597931 -4.33230725079268e-015
outer loop
vertex 155.897515187786 317.869492243984 11.2679491924313
vertex 153.387735142156 317.151273012312 7.01794919243131
vertex 155.897515187786 317.869492243984 7.01794919243131
endloop
endfacet
facet normal 0.147281831858969 -0.989094566765113 1.16553198940752e-016
outer loop
vertex 153.387735142156 317.151273012312 7.01794919243131
vertex 155.897515187786 317.869492243984 11.2679491924313
vertex 153.387735142156 317.151273012312 11.2679491924313
endloop
endfacet
facet normal 0.36699747547678 0.930221937493236 9.17821045095975e-015
outer loop
vertex 155.584891578334 336.344438054895 11.2679491924313
vertex 157.86743175698 335.077613254437 7.01794919243131
vertex 155.584891578334 336.344438054895 7.01794919243131
endloop
endfacet
facet normal 0.595251493341323 0.803539457447439 -4.82733358303131e-015
outer loop
vertex 157.86743175698 335.077613254437 7.01794919243131
vertex 155.584891578334 336.344438054895 11.2679491924313
vertex 157.86743175698 335.077613254437 11.2679491924313
endloop
endfacet
facet normal 0.989094566765114 0.147281831858962 -1.00668395828488e-014
outer loop
vertex 161.805862491218 328.515036998553 7.01794919243131
vertex 161.8500301212 325.904886818458 11.2679491924313
vertex 161.850030121199 325.904886818458 7.01794919243131
endloop
endfacet
facet normal 0.993511329763307 -0.113733186150506 -1.22721501814513e-014
outer loop
vertex 161.8500301212 325.904886818458 11.2679491924313
vertex 161.805862491218 328.515036998553 7.01794919243131
vertex 161.805862491218 328.515036998553 11.2679491924313
endloop
endfacet
facet normal -0.36699747547678 -0.930221937493236 -7.48111229346395e-015
outer loop
vertex 148.244942068799 317.739999305031 11.2679491924313
vertex 145.962401890153 319.006824105489 7.01794919243131
vertex 148.244942068799 317.739999305031 7.01794919243131
endloop
endfacet
facet normal -0.595251493341324 -0.803539457447438 -5.22908075889385e-015
outer loop
vertex 145.962401890153 319.006824105489 7.01794919243131
vertex 148.244942068799 317.739999305031 11.2679491924313
vertex 145.962401890153 319.006824105489 11.2679491924313
endloop
endfacet
facet normal 0.62209709128833 -0.782940105634269 -7.40433655378478e-015
outer loop
vertex 158.13588773645 319.21281762362 11.2679491924313
vertex 155.897515187786 317.869492243984 7.01794919243131
vertex 158.13588773645 319.21281762362 7.01794919243131
endloop
endfacet
facet normal 0.398259836421975 -0.917272643597934 -4.33230725079237e-015
outer loop
vertex 155.897515187786 317.869492243984 7.01794919243131
vertex 158.13588773645 319.21281762362 11.2679491924313
vertex 155.897515187786 317.869492243984 11.2679491924313
endloop
endfacet
facet normal 0.917272643597936 0.39825983642197 -6.49095793382038e-015
outer loop
vertex 161.087643259546 331.024817044183 7.01794919243131
vertex 161.805862491218 328.515036998553 11.2679491924313
vertex 161.805862491218 328.515036998553 7.01794919243131
endloop
endfacet
facet normal 0.989094566765114 0.147281831858965 -1.00668395828487e-014
outer loop
vertex 161.805862491218 328.515036998553 11.2679491924313
vertex 161.087643259546 331.024817044183 7.01794919243131
vertex 161.087643259546 331.024817044183 11.2679491924313
endloop
endfacet
facet normal -0.622097091288316 0.782940105634279 1.06099976583376e-014
outer loop
vertex 145.693945910683 334.871619736306 11.2679491924313
vertex 143.879522249092 332.994733613376 7.01794919243131
vertex 143.879522249092 332.994733613376 11.2679491924313
endloop
endfacet
facet normal -0.803539457447436 0.595251493341327 1.7432270299359e-014
outer loop
vertex 143.879522249092 332.994733613376 7.01794919243131
vertex 145.693945910683 334.871619736306 11.2679491924313
vertex 145.693945910683 334.871619736306 7.01794919243131
endloop
endfacet
facet normal -0.803539457447435 0.595251493341329 1.74322702993589e-014
outer loop
vertex 143.879522249092 332.994733613376 11.2679491924313
vertex 142.612697448634 330.712193434731 7.01794919243131
vertex 142.612697448634 330.712193434731 11.2679491924313
endloop
endfacet
facet normal -0.930221937493232 0.366997475476791 1.9032467557167e-014
outer loop
vertex 142.612697448634 330.712193434731 7.01794919243131
vertex 143.879522249092 332.994733613376 11.2679491924313
vertex 143.879522249092 332.994733613376 7.01794919243131
endloop
endfacet
facet normal -0.930221937493232 0.366997475476792 1.90324675571671e-014
outer loop
vertex 142.612697448634 330.712193434731 11.2679491924313
vertex 141.979803525933 328.179550541468 7.01794919243131
vertex 141.979803525933 328.179550541468 11.2679491924313
endloop
endfacet
facet normal -0.993511329763306 0.113733186150515 6.85047183101636e-015
outer loop
vertex 141.979803525933 328.179550541468 7.01794919243131
vertex 142.612697448634 330.712193434731 11.2679491924313
vertex 142.612697448634 330.712193434731 7.01794919243131
endloop
endfacet
facet normal -0.917272643597938 -0.398259836421966 7.08308672050088e-015
outer loop
vertex 142.742190387587 323.059620315743 11.2679491924313
vertex 144.085515767224 320.82124776708 7.01794919243131
vertex 144.085515767224 320.82124776708 11.2679491924313
endloop
endfacet
facet normal -0.782940105634272 -0.622097091288325 1.35211652516367e-015
outer loop
vertex 144.085515767224 320.82124776708 7.01794919243131
vertex 142.742190387587 323.059620315743 11.2679491924313
vertex 142.742190387587 323.059620315743 7.01794919243131
endloop
endfacet
facet normal 0.930221937493231 -0.366997475476792 -1.69717926557818e-015
outer loop
vertex 161.217136198499 323.372243925195 7.01794919243131
vertex 159.950311398041 321.08970374655 11.2679491924313
vertex 159.950311398041 321.08970374655 7.01794919243131
endloop
endfacet
facet normal 0.803539457447438 -0.595251493341325 7.96805850218706e-016
outer loop
vertex 159.950311398041 321.08970374655 11.2679491924313
vertex 161.217136198499 323.372243925195 7.01794919243131
vertex 161.217136198499 323.372243925195 11.2679491924313
endloop
endfacet
facet normal 0.803539457447437 -0.595251493341326 7.96805850218641e-016
outer loop
vertex 159.950311398041 321.08970374655 7.01794919243131
vertex 158.13588773645 319.21281762362 11.2679491924313
vertex 158.13588773645 319.21281762362 7.01794919243131
endloop
endfacet
facet normal 0.62209709128833 -0.782940105634269 -7.40433655378478e-015
outer loop
vertex 158.13588773645 319.21281762362 11.2679491924313
vertex 159.950311398041 321.08970374655 7.01794919243131
vertex 159.950311398041 321.08970374655 11.2679491924313
endloop
endfacet
facet normal -0.59525149334132 -0.803539457447441 -5.22908075889383e-015
outer loop
vertex 145.962401890153 319.006824105489 11.2679491924313
vertex 144.085515767224 320.82124776708 7.01794919243131
vertex 145.962401890153 319.006824105489 7.01794919243131
endloop
endfacet
facet normal -0.782940105634272 -0.622097091288325 1.35211652516367e-015
outer loop
vertex 144.085515767224 320.82124776708 7.01794919243131
vertex 145.962401890153 319.006824105489 11.2679491924313
vertex 144.085515767224 320.82124776708 11.2679491924313
endloop
endfacet
facet normal -0.917272643597938 -0.398259836421966 7.08308672050088e-015
outer loop
vertex 142.742190387587 323.059620315743 11.2679491924313
vertex 142.023971155915 325.569400361373 7.01794919243131
vertex 142.742190387587 323.059620315743 7.01794919243131
endloop
endfacet
facet normal -0.989094566765115 -0.147281831858956 2.94806307491796e-015
outer loop
vertex 142.023971155915 325.569400361373 7.01794919243131
vertex 142.742190387587 323.059620315743 11.2679491924313
vertex 142.023971155915 325.569400361373 11.2679491924313
endloop
endfacet
facet normal -0.989094566765115 -0.147281831858954 2.94806307491792e-015
outer loop
vertex 142.023971155915 325.569400361373 11.2679491924313
vertex 141.979803525933 328.179550541468 7.01794919243131
vertex 142.023971155915 325.569400361373 7.01794919243131
endloop
endfacet
facet normal -0.993511329763306 0.113733186150515 6.85047183101636e-015
outer loop
vertex 141.979803525933 328.179550541468 7.01794919243131
vertex 142.023971155915 325.569400361373 11.2679491924313
vertex 141.979803525933 328.179550541468 11.2679491924313
endloop
endfacet
facet normal 0.993511329763307 -0.113733186150508 -1.22721501814513e-014
outer loop
vertex 161.850030121199 325.904886818458 7.01794919243131
vertex 161.217136198499 323.372243925195 11.2679491924313
vertex 161.217136198499 323.372243925195 7.01794919243131
endloop
endfacet
facet normal 0.930221937493232 -0.366997475476791 -1.69717926557829e-015
outer loop
vertex 161.217136198499 323.372243925195 11.2679491924313
vertex 161.850030121199 325.904886818458 7.01794919243131
vertex 161.8500301212 325.904886818458 11.2679491924313
endloop
endfacet
facet normal 0.0 0.0 -1.0
outer loop
vertex 142.612697448634 330.712193434731 7.01794919243131
vertex 142.023971155915 325.569400361373 7.01794919243131
vertex 141.979803525933 328.179550541468 7.01794919243131
endloop
endfacet
facet normal 0.0 0.0 -1.0
outer loop
vertex 142.023971155915 325.569400361373 7.01794919243131
vertex 142.612697448634 330.712193434731 7.01794919243131
vertex 142.742190387587 323.059620315743 7.01794919243131
endloop
endfacet
facet normal 0.0 0.0 -1.0
outer loop
vertex 142.742190387587 323.059620315743 7.01794919243131
vertex 142.612697448634 330.712193434731 7.01794919243131
vertex 143.879522249092 332.994733613376 7.01794919243131
endloop
endfacet
facet normal 0.0 0.0 -1.0
outer loop
vertex 142.742190387587 323.059620315743 7.01794919243131
vertex 143.879522249092 332.994733613376 7.01794919243131
vertex 144.085515767224 320.82124776708 7.01794919243131
endloop
endfacet
facet normal 0.0 0.0 -1.0
outer loop
vertex 144.085515767224 320.82124776708 7.01794919243131
vertex 143.879522249092 332.994733613376 7.01794919243131
vertex 145.693945910683 334.871619736306 7.01794919243131
endloop
endfacet
facet normal 0.0 0.0 -1.0
outer loop
vertex 144.085515767224 320.82124776708 7.01794919243131
vertex 145.693945910683 334.871619736306 7.01794919243131
vertex 145.962401890153 319.006824105489 7.01794919243131
endloop
endfacet
facet normal 0.0 0.0 -1.0
outer loop
vertex 145.962401890153 319.006824105489 7.01794919243131
vertex 145.693945910683 334.871619736306 7.01794919243131
vertex 147.932318459347 336.214945115942 7.01794919243131
endloop
endfacet
facet normal 0.0 0.0 -1.0
outer loop
vertex 145.962401890153 319.006824105489 7.01794919243131
vertex 147.932318459347 336.214945115942 7.01794919243131
vertex 148.244942068799 317.739999305031 7.01794919243131
endloop
endfacet
facet normal 0.0 0.0 -1.0
outer loop
vertex 148.244942068799 317.739999305031 7.01794919243131
vertex 147.932318459347 336.214945115942 7.01794919243131
vertex 148.817678571941 326.911393557498 7.01794919243131
endloop
endfacet
facet normal 0.0 0.0 -1.0
outer loop
vertex 148.817678571941 326.911393557498 7.01794919243131
vertex 147.932318459347 336.214945115942 7.01794919243131
vertex 148.889354372879 327.717475562188 7.01794919243131
endloop
endfacet
facet normal 0.0 0.0 -1.0
outer loop
vertex 148.889354372879 327.717475562188 7.01794919243131
vertex 147.932318459347 336.214945115942 7.01794919243131
vertex 150.442098504977 336.933164347614 7.01794919243131
endloop
endfacet
facet normal 0.0 0.0 -1.0
outer loop
vertex 148.889354372879 327.717475562188 7.01794919243131
vertex 150.442098504977 336.933164347614 7.01794919243131
vertex 149.167217254853 328.477539926268 7.01794919243131
endloop
endfacet
facet normal 0.0 0.0 -1.0
outer loop
vertex 149.167217254853 328.477539926268 7.01794919243131
vertex 150.442098504977 336.933164347614 7.01794919243131
vertex 149.632331321647 329.139789519393 7.01794919243131
endloop
endfacet
facet normal 0.0 0.0 -1.0
outer loop
vertex 149.632331321647 329.139789519393 7.01794919243131
vertex 150.442098504977 336.933164347614 7.01794919243131
vertex 150.252999818246 329.659093126211 7.01794919243131
endloop
endfacet
facet normal 0.0 0.0 -1.0
outer loop
vertex 150.252999818246 329.659093126211 7.01794919243131
vertex 150.442098504977 336.933164347614 7.01794919243131
vertex 150.98692521231 330.000061064107 7.01794919243131
endloop
endfacet
facet normal 0.0 0.0 -1.0
outer loop
vertex 150.98692521231 330.000061064107 7.01794919243131
vertex 150.442098504977 336.933164347614 7.01794919243131
vertex 153.052248685071 336.977331977596 7.01794919243131
endloop
endfacet
facet normal 0.0 0.0 -1.0
outer loop
vertex 150.98692521231 330.000061064107 7.01794919243131
vertex 153.052248685071 336.977331977596 7.01794919243131
vertex 151.784091701102 330.139456931588 7.01794919243131
endloop
endfacet
facet normal 0.0 0.0 -1.0
outer loop
vertex 151.784091701102 330.139456931588 7.01794919243131
vertex 153.052248685071 336.977331977596 7.01794919243131
vertex 152.590173705791 330.06778113065 7.01794919243131
endloop
endfacet
facet normal 0.0 0.0 -1.0
outer loop
vertex 152.590173705791 330.06778113065 7.01794919243131
vertex 153.052248685071 336.977331977596 7.01794919243131
vertex 153.350238069872 329.789918248676 7.01794919243131
endloop
endfacet
facet normal 0.0 0.0 -1.0
outer loop
vertex 153.350238069872 329.789918248676 7.01794919243131
vertex 153.052248685071 336.977331977596 7.01794919243131
vertex 155.584891578334 336.344438054895 7.01794919243131
endloop
endfacet
facet normal 0.0 0.0 -1.0
outer loop
vertex 153.350238069872 329.789918248676 7.01794919243131
vertex 155.584891578334 336.344438054895 7.01794919243131
vertex 154.012487662997 329.324804181882 7.01794919243131
endloop
endfacet
facet normal 0.0 0.0 -1.0
outer loop
vertex 154.012487662997 329.324804181882 7.01794919243131
vertex 155.584891578334 336.344438054895 7.01794919243131
vertex 154.531791269815 328.704135685283 7.01794919243131
endloop
endfacet
facet normal 0.0 0.0 -1.0
outer loop
vertex 154.531791269815 328.704135685283 7.01794919243131
vertex 155.584891578334 336.344438054895 7.01794919243131
vertex 154.87275920771 327.97021029122 7.01794919243131
endloop
endfacet
facet normal 0.0 0.0 -1.0
outer loop
vertex 154.87275920771 327.97021029122 7.01794919243131
vertex 155.584891578334 336.344438054895 7.01794919243131
vertex 155.012155075192 327.173043802428 7.01794919243131
endloop
endfacet
facet normal 0.0 0.0 -1.0
outer loop
vertex 148.244942068799 317.739999305031 7.01794919243131
vertex 148.957074439423 326.114227068706 7.01794919243131
vertex 150.777584962061 317.10710538233 7.01794919243131
endloop
endfacet
facet normal 0.0 0.0 -1.0
outer loop
vertex 148.957074439423 326.114227068706 7.01794919243131
vertex 148.244942068799 317.739999305031 7.01794919243131
vertex 148.817678571941 326.911393557498 7.01794919243131
endloop
endfacet
facet normal 0.0 0.0 -1.0
outer loop
vertex 150.777584962061 317.10710538233 7.01794919243131
vertex 148.957074439423 326.114227068706 7.01794919243131
vertex 149.298042377318 325.380301674643 7.01794919243131
endloop
endfacet
facet normal 0.0 0.0 -1.0
outer loop
vertex 150.777584962061 317.10710538233 7.01794919243131
vertex 149.298042377318 325.380301674643 7.01794919243131
vertex 149.817345984136 324.759633178044 7.01794919243131
endloop
endfacet
facet normal 0.0 0.0 -1.0
outer loop
vertex 150.777584962061 317.10710538233 7.01794919243131
vertex 149.817345984136 324.759633178044 7.01794919243131
vertex 150.479595577261 324.29451911125 7.01794919243131
endloop
endfacet
facet normal 0.0 0.0 -1.0
outer loop
vertex 150.777584962061 317.10710538233 7.01794919243131
vertex 150.479595577261 324.29451911125 7.01794919243131
vertex 151.239659941342 324.016656229276 7.01794919243131
endloop
endfacet
facet normal 0.0 0.0 -1.0
outer loop
vertex 150.777584962061 317.10710538233 7.01794919243131
vertex 151.239659941342 324.016656229276 7.01794919243131
vertex 153.387735142156 317.151273012312 7.01794919243131
endloop
endfacet
facet normal 0.0 0.0 -1.0
outer loop
vertex 153.387735142156 317.151273012312 7.01794919243131
vertex 151.239659941342 324.016656229276 7.01794919243131
vertex 152.045741946031 323.944980428337 7.01794919243131
endloop
endfacet
facet normal 0.0 0.0 -1.0
outer loop
vertex 153.387735142156 317.151273012312 7.01794919243131
vertex 152.045741946031 323.944980428337 7.01794919243131
vertex 152.842908434823 324.084376295819 7.01794919243131
endloop
endfacet
facet normal 0.0 0.0 -1.0
outer loop
vertex 153.387735142156 317.151273012312 7.01794919243131
vertex 152.842908434823 324.084376295819 7.01794919243131
vertex 153.576833828887 324.425344233715 7.01794919243131
endloop
endfacet
facet normal 0.0 0.0 -1.0
outer loop
vertex 153.387735142156 317.151273012312 7.01794919243131
vertex 153.576833828887 324.425344233715 7.01794919243131
vertex 155.897515187786 317.869492243984 7.01794919243131
endloop
endfacet
facet normal 0.0 0.0 -1.0
outer loop
vertex 155.897515187786 317.869492243984 7.01794919243131
vertex 153.576833828887 324.425344233715 7.01794919243131
vertex 154.197502325486 324.944647840533 7.01794919243131
endloop
endfacet
facet normal 0.0 0.0 -1.0
outer loop
vertex 155.897515187786 317.869492243984 7.01794919243131
vertex 154.197502325486 324.944647840533 7.01794919243131
vertex 154.662616392279 325.606897433658 7.01794919243131
endloop
endfacet
facet normal 0.0 0.0 -1.0
outer loop
vertex 155.897515187786 317.869492243984 7.01794919243131
vertex 154.662616392279 325.606897433658 7.01794919243131
vertex 154.940479274254 326.366961797738 7.01794919243131
endloop
endfacet
facet normal 0.0 0.0 -1.0
outer loop
vertex 155.897515187786 317.869492243984 7.01794919243131
vertex 154.940479274254 326.366961797738 7.01794919243131
vertex 155.012155075192 327.173043802428 7.01794919243131
endloop
endfacet
facet normal 0.0 0.0 -1.0
outer loop
vertex 155.897515187786 317.869492243984 7.01794919243131
vertex 155.012155075192 327.173043802428 7.01794919243131
vertex 155.584891578334 336.344438054895 7.01794919243131
endloop
endfacet
facet normal 0.0 0.0 -1.0
outer loop
vertex 155.897515187786 317.869492243984 7.01794919243131
vertex 155.584891578334 336.344438054895 7.01794919243131
vertex 157.86743175698 335.077613254437 7.01794919243131
endloop
endfacet
facet normal 0.0 0.0 -1.0
outer loop
vertex 155.897515187786 317.869492243984 7.01794919243131
vertex 157.86743175698 335.077613254437 7.01794919243131
vertex 158.13588773645 319.21281762362 7.01794919243131
endloop
endfacet
facet normal 0.0 0.0 -1.0
outer loop
vertex 158.13588773645 319.21281762362 7.01794919243131
vertex 157.86743175698 335.077613254437 7.01794919243131
vertex 159.744317879909 333.263189592846 7.01794919243131
endloop
endfacet
facet normal 0.0 0.0 -1.0
outer loop
vertex 158.13588773645 319.21281762362 7.01794919243131
vertex 159.744317879909 333.263189592846 7.01794919243131
vertex 159.950311398041 321.08970374655 7.01794919243131
endloop
endfacet
facet normal 0.0 0.0 -1.0
outer loop
vertex 159.950311398041 321.08970374655 7.01794919243131
vertex 159.744317879909 333.263189592846 7.01794919243131
vertex 161.087643259546 331.024817044183 7.01794919243131
endloop
endfacet
facet normal 0.0 0.0 -1.0
outer loop
vertex 159.950311398041 321.08970374655 7.01794919243131
vertex 161.087643259546 331.024817044183 7.01794919243131
vertex 161.217136198499 323.372243925195 7.01794919243131
endloop
endfacet
facet normal 0.0 0.0 -1.0
outer loop
vertex 161.217136198499 323.372243925195 7.01794919243131
vertex 161.087643259546 331.024817044183 7.01794919243131
vertex 161.805862491218 328.515036998553 7.01794919243131
endloop
endfacet
facet normal 0.0 0.0 -1.0
outer loop
vertex 161.217136198499 323.372243925195 7.01794919243131
vertex 161.805862491218 328.515036998553 7.01794919243131
vertex 161.850030121199 325.904886818458 7.01794919243131
endloop
endfacet
endsolid Quadro_completa
